<?xml version="1.0" encoding="UTF-8"?>
<svg width="84px" height="24px" viewBox="0 0 84 24" version="1.1" xmlns="http://www.w3.org/2000/svg" xmlns:xlink="http://www.w3.org/1999/xlink">
    <title>logo/reverse/aura-cacia</title>
    <defs>
        <polygon id="path-1" points="0.217096552 0.117207547 14.5049172 0.117207547 14.5049172 14.2773425 0.217096552 14.2773425"></polygon>
        <polygon id="path-3" points="0.219384828 0.122179475 14.5066262 0.122179475 14.5066262 14.2773425 0.219384828 14.2773425"></polygon>
        <polygon id="path-5" points="0.219095172 0.226307461 3.73782621 0.226307461 3.73782621 4.6724821 0.219095172 4.6724821"></polygon>
        <polygon id="path-7" points="0.256402759 0.122179475 14.5436441 0.122179475 14.5436441 14.2773425 0.256402759 14.2773425"></polygon>
        <polygon id="path-9" points="0.256489655 0.0107065944 5.40047586 0.0107065944 5.40047586 6.36745747 0.256489655 6.36745747"></polygon>
        <polygon id="path-11" points="0.0223324138 0.0292948243 14.3101531 0.0292948243 14.3101531 14.2773425 0.0223324138 14.2773425"></polygon>
        <polygon id="path-13" points="0.219877241 0.00762738916 2.68278621 0.00762738916 2.68278621 2.33146687 0.219877241 2.33146687"></polygon>
        <polygon id="path-15" points="0 0.244132952 8.61952966 0.244132952 8.61952966 6.81611745 0 6.81611745"></polygon>
        <polygon id="path-17" points="0 23.0273986 83.7862345 23.0273986 83.7862345 0.28280664 0 0.28280664"></polygon>
    </defs>
    <g id="Symbols" stroke="none" stroke-width="1" fill="none" fill-rule="evenodd">
        <g id="global/footer/AC" transform="translate(-383.000000, -565.000000)">
            <g id="global/footer/FC">
                <g id="footer" transform="translate(-0.000000, 274.000000)">
                    <g id="brand-links" transform="translate(188.000000, 278.000000)">
                        <g id="logo/reverse/aura-cacia" transform="translate(195.000000, 13.000000)">
                            <g id="Group-124">
                                <path d="M3.4909531,23.0034995 L4.17453931,23.0034995 C3.91674621,22.7888026 3.65605655,22.5803206 3.41245655,22.3726861 C3.42520138,22.5958579 3.45474621,22.8034924 3.4909531,23.0034995" id="Fill-1" fill="#050200"></path>
                                <path d="M55.8503545,16.3397603 C56.6147545,15.2089292 58.0502855,13.9786596 60.1195821,12.9500921 C58.7222855,13.0026363 56.3624648,14.2975975 55.2632234,15.7566888 C54.0652097,17.3482707 53.2535959,19.2974923 53.5354303,19.4189656 C53.8488372,19.5568236 55.1088372,17.4355619 55.8503545,16.3397603" id="Fill-3" fill="#FEFEFE"></path>
                                <g id="Group-7" transform="translate(50.110345, 8.750056)">
                                    <mask id="mask-2" fill="white">
                                        <use xlink:href="#path-1"></use>
                                    </mask>
                                    <g id="Clip-6"></g>
                                    <path d="M13.1290552,0.117207547 L1.59237931,0.117207547 C0.833193103,0.117207547 0.217096552,0.540668893 0.217096552,1.0632863 L0.217096552,13.4614661 C0.217096552,13.8617628 0.579165517,14.2030179 1.08953793,14.3411584 L2.05930345,12.2843057 C1.82178621,11.994465 1.50982759,11.2342685 1.59006207,9.23899999 C1.59006207,9.23899999 1.56283448,6.44737556 4.83448966,4.47555421 C4.83448966,4.47555421 8.63737241,2.25909142 11.7685448,3.28426902 C11.7685448,3.28426902 11.0377448,3.90378252 10.8066,4.7860172 C10.8066,4.7860172 10.5760345,5.3914059 10.3703793,7.42113891 C10.3703793,7.42113891 9.97471034,10.9365178 6.3714,12.2382589 C6.3714,12.2382589 4.15293103,13.0648419 2.53491724,12.5453319 C2.24178621,13.1820777 1.98833793,13.8233434 1.7766,14.4072624 L3.23733103,14.4072624 L4.03591034,14.4072624 L13.1290552,14.4072624 C13.8888207,14.4072624 14.5049172,13.983801 14.5049172,13.4614661 L14.5049172,1.0632863 C14.5049172,0.540668893 13.8888207,0.117207547 13.1290552,0.117207547" id="Fill-5" fill="#FEFEFE" mask="url(#mask-2)"></path>
                                </g>
                                <path d="M40.9305931,17.5530519 C40.898731,17.6242409 40.8828,17.7287644 40.9864966,17.823683 L43.4349517,19.8777106 C43.5230069,19.9585045 43.6530621,20.0491857 43.8028138,20.0359083 C43.9279448,20.0251735 44.0507586,19.9409897 44.1686483,19.7858995 C44.3221655,19.5839149 44.4339724,19.3469009 44.5446207,19.1014119 C44.6549793,18.855358 44.7586759,18.614389 44.8076276,18.3680526 C44.8449931,18.1782153 44.8250069,18.0330125 44.7488276,17.9358339 C44.6584552,17.8211405 44.5011724,17.787241 44.3850207,17.7790486 L41.1689793,17.4092615 C41.0305241,17.3976792 40.9624552,17.4815805 40.9305931,17.5530519 M43.7735586,20.230548 C43.5736966,20.230548 43.4085931,20.1189621 43.3022897,20.0212186 L40.8541241,17.9671909 C40.7078483,17.8341353 40.6699034,17.6507955 40.7495586,17.4745181 C40.8292138,17.2982406 40.9940276,17.202757 41.1889655,17.2168818 L44.4038483,17.5866689 C44.5562069,17.5974038 44.771131,17.6465581 44.9061103,17.8180331 C45.0182069,17.9612585 45.0506483,18.1587231 45.0019862,18.4047771 C44.9495586,18.6708882 44.8415172,18.9228745 44.7259448,19.1790983 C44.6106621,19.4353221 44.4936414,19.683071 44.3279586,19.9011578 C44.1750207,20.1022949 44.0041241,20.2127508 43.8201931,20.2285705 C43.8045517,20.2297005 43.7892,20.230548 43.7735586,20.230548" id="Fill-8" fill="#FEFEFE"></path>
                                <path d="M40.9795159,16.8858531 C41.0041366,16.9601495 41.0632262,17.0497007 41.2054469,17.0533732 L44.4348124,17.0104338 C44.5561779,17.0149537 44.7157779,16.9965915 44.8177366,16.891503 C44.9040538,16.8027993 44.9393917,16.6598564 44.9223021,16.4674767 C44.899709,16.2174678 44.8229503,15.967459 44.7389503,15.7118002 C44.6546607,15.4561414 44.5689228,15.208675 44.4379986,14.9931306 C44.3371986,14.8267405 44.2236538,14.7306919 44.1002607,14.7072448 C43.9551434,14.6795602 43.8137917,14.7558341 43.7213917,14.8244806 L41.060909,16.6248269 C40.95084,16.7059032 40.9554745,16.8115567 40.9795159,16.8858531 L40.9795159,16.8858531 Z M41.2042883,17.2466004 C41.0047159,17.2415155 40.8520676,17.1290821 40.79124,16.9457423 C40.7312814,16.7618374 40.7883434,16.5835825 40.9450469,16.4683242 L43.6046607,14.6685428 C43.7260262,14.5778617 43.9195159,14.4761631 44.1384952,14.5174075 C44.3195297,14.551872 44.477971,14.6789952 44.6086055,14.8948221 C44.7496676,15.1275987 44.8397503,15.3860824 44.9275159,15.6527585 C45.0152814,15.9194347 45.0955159,16.1810259 45.1195572,16.4505269 C45.1418607,16.7005358 45.0888538,16.8934805 44.9616952,17.0242761 C44.8096262,17.1816263 44.5900676,17.2095934 44.4327848,17.203661 L41.2042883,17.2466004 Z" id="Fill-10" fill="#FEFEFE"></path>
                                <path d="M40.6095393,16.2038798 C40.6764497,16.2465367 40.7795669,16.2787412 40.8922428,16.1945574 L43.3731393,14.1775367 C43.4693048,14.1060653 43.58256,13.9939144 43.5935669,13.8498415 C43.6034152,13.7275208 43.5382428,13.5953127 43.4009462,13.4563247 C43.2225186,13.2758098 43.0006428,13.1291945 42.7703669,12.9822966 C42.540091,12.8351162 42.3135807,12.6961283 42.0722979,12.6085545 C41.8863393,12.5413205 41.7365876,12.5365181 41.6256497,12.5938647 C41.4947255,12.6619463 41.4347669,12.8074316 41.40696,12.9178875 L40.5035255,15.9507635 C40.4705048,16.0818416 40.5429186,16.1612229 40.6095393,16.2038798 M40.7453876,16.4397639 C40.6622566,16.4397639 40.5785462,16.4149042 40.5003393,16.3651849 L40.5003393,16.3649024 C40.3352359,16.2595315 40.2651393,16.0857965 40.3123531,15.9004792 L41.2157876,12.8681683 C41.2514152,12.7238129 41.3365738,12.5249357 41.5326703,12.4232372 C41.6954566,12.3387709 41.9005324,12.3401834 42.1415255,12.4277572 C42.4019255,12.5218283 42.6385738,12.6673137 42.8789876,12.8204264 C43.1188221,12.9738217 43.3505462,13.127217 43.5434566,13.3221392 C43.7218841,13.5023715 43.8053048,13.6848639 43.7911117,13.8642488 C43.7743117,14.0800756 43.6216634,14.2357309 43.4965324,14.328672 L41.0159255,16.3454102 C40.9319255,16.4084068 40.8389462,16.4397639 40.7453876,16.4397639" id="Fill-12" fill="#FEFEFE"></path>
                                <path d="M39.9614648,12.1876921 C39.7856441,12.1876921 39.605189,12.2043594 39.4215476,12.2230041 C39.1469545,12.2515362 38.881051,12.2837407 38.6386097,12.3648171 C38.4512028,12.4272487 38.3318648,12.5159524 38.2829131,12.6289507 C38.225851,12.7625713 38.2736441,12.9125766 38.3243338,13.0151226 L39.5921545,15.9208754 C39.6515338,16.0431961 39.7592855,16.0598634 39.838651,16.0513885 C39.9180166,16.0429136 40.0191062,16.0044942 40.0512579,15.8697436 L40.663589,12.7769786 C40.6916855,12.6620028 40.7064579,12.5055 40.621589,12.3868518 C40.5500441,12.2862832 40.4139062,12.2238516 40.2172303,12.2012519 C40.1332303,12.1916471 40.0480717,12.1876921 39.9614648,12.1876921 M39.8053407,16.2463107 C39.6324166,16.2463107 39.487589,16.157042 39.4114097,15.9999742 L38.1438786,13.094504 C38.0775476,12.9606009 38.0146924,12.7538139 38.1004303,12.5543718 C38.1716855,12.3882642 38.3312855,12.2628361 38.5745959,12.1817597 C38.8361545,12.094751 39.1148028,12.0608515 39.4004028,12.0309069 C39.6865821,12.0015273 39.96552,11.9780802 40.2406924,12.0094372 C40.4958786,12.0388168 40.6789407,12.1286505 40.7843752,12.2763959 C40.9112441,12.4540858 40.8938648,12.6687827 40.8570786,12.8179405 L40.2450372,15.9098581 C40.199851,16.0996953 40.0556028,16.223146 39.8586372,16.2434857 C39.8406786,16.2454632 39.82272,16.2463107 39.8053407,16.2463107" id="Fill-14" fill="#FEFEFE"></path>
                                <path d="M37.3353352,12.9840198 C37.2354041,12.9840198 37.1218593,13.0227218 36.9958593,13.0995606 C36.7789076,13.2320512 36.5851283,13.4134136 36.389611,13.6032508 C36.1946731,13.7922406 36.0084248,13.9795354 35.870549,14.1919723 C35.7648248,14.3549724 35.7286179,14.4976328 35.7633766,14.6154336 C35.8045076,14.7544216 35.9389076,14.8419953 36.0434731,14.8905846 L38.8991834,16.3801855 C39.0240248,16.4392271 39.1178731,16.3861179 39.1749352,16.3313137 C39.2311283,16.2759445 39.2852938,16.1844158 39.2238869,16.0598351 L37.7139145,13.2752731 C37.6617766,13.1687721 37.5725628,13.0374115 37.4303421,12.9970146 C37.4005076,12.9885398 37.3686455,12.9840198 37.3353352,12.9840198 M39.0066455,16.5982723 C38.9408938,16.5982723 38.8739834,16.5830175 38.8091007,16.5522255 L35.9539697,15.0631896 C35.8163834,14.999063 35.63448,14.8767423 35.5730731,14.6688253 C35.5218041,14.4956554 35.5661214,14.3007332 35.7031283,14.0888613 C35.852011,13.8594746 36.0466593,13.6634224 36.2499972,13.4662403 C36.4536248,13.2684932 36.6563834,13.0789384 36.8907145,12.9359955 C37.1085352,12.8026575 37.3083972,12.7608481 37.4862455,12.8114148 C37.6988524,12.8721514 37.8239834,13.0501239 37.8906041,13.1888293 L39.4005766,15.9725439 C39.4877628,16.1485388 39.4541628,16.3327262 39.31368,16.4688892 C39.2253352,16.5542029 39.1178731,16.5982723 39.0066455,16.5982723" id="Fill-16" fill="#FEFEFE"></path>
                                <polygon id="Fill-18" fill="#070100" points="39.002851 16.5932721 39.0025614 16.5935546 39.0025614 16.5944021"></polygon>
                                <polygon id="Fill-20" fill="#070100" points="39.0814924 17.1958076 39.0817821 17.1966551 39.0817821 17.1969376"></polygon>
                                <path d="M39.5083283,17.6381679 L39.5083283,17.6381679 C39.5086179,17.6384504 39.5086179,17.6384504 39.5091972,17.6384504 L39.5083283,17.6381679 Z" id="Fill-22" fill="#070100"></path>
                                <path d="M40.1201669,17.751138 L40.1201669,17.751138 C40.1204566,17.751138 40.1207462,17.7508556 40.1210359,17.7508556 L40.1201669,17.751138 Z" id="Fill-24" fill="#070100"></path>
                                <path d="M43.3703007,19.9509618 L40.9192386,17.8943917 C40.8022179,17.7878908 40.7793352,17.6494678 40.8404524,17.5138697 L40.8398731,17.5144347 L40.8404524,17.5135873 L40.8404524,17.5138697 C40.90128,17.3785542 41.0211972,17.3011503 41.1805076,17.3132977 L44.3919145,17.6828023 C44.6444938,17.7005995 45.0158317,17.8248977 44.9048938,18.3867821 C44.8539145,18.6441358 44.7470317,18.8921672 44.6352248,19.1401986 C44.5234179,19.38823 44.4087145,19.6323065 44.2482455,19.8433309 C43.899211,20.3029517 43.5545214,20.1204594 43.3703007,19.9509618 L43.3703007,19.9509618 Z M42.6620938,20.9942192 C42.4573076,21.1394221 42.2137076,21.2462055 41.9614179,21.3515765 C41.7094179,21.456665 41.4626317,21.5549735 41.2132386,21.5996079 C41.0255421,21.6329424 40.883611,21.6140152 40.7906317,21.5431087 C40.6814317,21.4600549 40.6495697,21.313157 40.6423283,21.1993112 L40.2932938,18.0686917 C40.2869214,17.9842254 40.3187834,17.9203813 40.3871421,17.8782895 C40.3990179,17.8709446 40.4123421,17.8641647 40.4265352,17.8585147 C40.5227007,17.8181178 40.606411,17.8353501 40.6724524,17.9056916 L42.7623145,20.319054 C42.8379145,20.3987178 42.9253903,20.5221685 42.9114869,20.6569191 C42.9001903,20.7713299 42.8159007,20.8848933 42.6620938,20.9942192 L42.6620938,20.9942192 Z M39.8489628,16.1474371 L39.8489628,16.1474371 L39.8480938,16.1477196 C39.8483834,16.1477196 39.8486731,16.1474371 39.8489628,16.1474371 C39.6977628,16.1632569 39.5694455,16.0999778 39.5007972,15.9587298 L38.2350041,13.056932 C38.1255145,12.8343252 38.0516524,12.4583232 38.6066317,12.2732884 C38.8612386,12.1885396 39.1352524,12.1557701 39.4112938,12.127238 C39.6867559,12.0987059 39.9616386,12.0744113 40.2287007,12.1054858 C40.8111972,12.1724374 40.8198869,12.5552193 40.7605076,12.7953408 L40.1478869,15.8914958 C40.11168,16.0434786 39.9995834,16.1313348 39.8489628,16.1474371 L39.8489628,16.1474371 Z M39.8411421,21.2411206 C39.8434593,21.349599 39.825211,21.4984743 39.7229628,21.590568 C39.6363559,21.6688194 39.4967421,21.6993289 39.3073076,21.6815317 C39.05328,21.6575195 38.7995421,21.5801157 38.5397214,21.4964969 C38.2801903,21.4123131 38.0290593,21.3261518 37.810949,21.1978987 C37.6478731,21.1018501 37.5543145,20.9956317 37.5331697,20.8826333 C37.50768,20.7492952 37.5835697,20.6193471 37.6556938,20.5292309 L39.522811,17.9602133 C39.5462731,17.9302687 39.5723421,17.908234 39.6010179,17.8943917 C39.648811,17.8706621 39.7044248,17.8689671 39.7661214,17.8887418 C39.8646041,17.9209463 39.9152938,17.9876154 39.9173214,18.0828165 L39.8411421,21.2411206 Z M36.7881766,20.3029517 C36.7033076,20.3831806 36.6059834,20.4487196 36.4304524,20.3780956 C36.2285628,20.2964543 36.0828662,20.108877 35.9438317,19.8786429 C35.8053766,19.6486912 35.5455559,19.1088416 35.4687972,18.8723925 C35.4108662,18.6952676 35.4120248,18.5551496 35.4722731,18.4562761 C35.5171697,18.3828271 35.5919007,18.3359328 35.6695283,18.3062707 C35.7147145,18.288756 35.7610593,18.2771737 35.803349,18.2692638 L38.943211,17.5356219 C39.0434317,17.5161297 39.1216386,17.5508767 39.1746455,17.6387329 C39.2267834,17.7263067 39.2198317,17.809078 39.1572662,17.8816794 L37.07928,20.0153709 C37.0630593,20.0111335 37.0442317,20.0617002 36.7881766,20.3029517 L36.7881766,20.3029517 Z M35.0916662,17.2703583 C35.0690731,17.0234569 35.0997766,16.7652556 35.1362731,16.5002745 C35.1727697,16.2358583 35.2133214,15.9790696 35.3022455,15.7465754 C35.3691559,15.572558 35.4586593,15.463232 35.5684386,15.4219876 C35.5716248,15.4208577 35.5745214,15.4197277 35.5774179,15.4188802 C35.7045766,15.3753758 35.845349,15.4234001 35.9475972,15.4745319 L38.8812248,16.7887028 C38.9721766,16.8339021 39.0118593,16.9076336 38.9979559,17.0082021 C38.9837628,17.1090531 38.9255421,17.1700722 38.8308248,17.189847 L35.6341903,17.700882 C35.52528,17.7231992 35.3720524,17.7330866 35.2602455,17.6522927 C35.1652386,17.5842112 35.1087559,17.4553931 35.0916662,17.2703583 L35.0916662,17.2703583 Z M35.7868386,14.1403038 C35.9307972,13.918827 36.1228386,13.7255998 36.3195145,13.5346326 C36.5167697,13.3436653 36.7148938,13.1572181 36.9434317,13.0179476 C37.4401903,12.713982 37.6927697,13.0066477 37.8011007,13.230102 L39.3133903,16.0177715 C39.3823283,16.1584544 39.3519145,16.295465 39.2444524,16.3999884 L39.2444524,16.3997059 L39.2438731,16.4002709 C39.2441628,16.4002709 39.2444524,16.3999884 39.2444524,16.3999884 C39.1369903,16.5042294 38.9962179,16.5333265 38.8522593,16.4655275 L36.0011834,14.9779041 C35.7723559,14.8714031 35.4734317,14.6239367 35.7868386,14.1403038 L35.7868386,14.1403038 Z M42.1068248,12.5182123 C42.3588248,12.609741 42.5922869,12.7532489 42.8243007,12.9012768 C43.0571834,13.0495871 43.2851421,13.2007224 43.4722593,13.3894297 C43.8798041,13.8007437 43.6382317,14.1024493 43.4366317,14.2518896 L40.952549,16.2711703 C40.8259697,16.3663714 40.6823007,16.3655239 40.5548524,16.2844476 L40.5551421,16.2847301 L40.5545628,16.2841651 L40.5548524,16.2844476 C40.4282731,16.2033713 40.3697628,16.0754007 40.4082869,15.9239829 L41.3108524,12.8956269 C41.3705214,12.6552229 41.5570593,12.3190527 42.1068248,12.5182123 L42.1068248,12.5182123 Z M44.5228386,14.9437221 C44.6601352,15.1700013 44.74848,15.4248126 44.833349,15.6821664 C44.9182179,15.9400851 44.9978731,16.1977214 45.0207559,16.4590301 C45.0717352,17.0291068 44.68968,17.115268 44.4362317,17.1070757 L41.2031007,17.150015 C41.043211,17.1457776 40.9319834,17.0567914 40.885349,16.9155434 C40.8856386,16.9158259 40.8856386,16.9161084 40.8856386,16.9163909 L40.885349,16.9155434 C40.8395834,16.7748605 40.8772386,16.639545 41.0046869,16.5454738 L43.6614041,14.7476699 C43.8621352,14.5982296 44.2250731,14.4513318 44.5228386,14.9437221 L44.5228386,14.9437221 Z M44.7270455,20.5148236 C45.6936248,19.0026231 46.093349,16.947183 45.4923145,15.263225 C44.9605076,13.7753191 43.867349,12.578384 42.412411,11.8927664 C40.9583421,11.2074314 39.3168662,11.1153377 37.7915421,11.6337177 C36.72648,11.9955949 35.8074041,12.6283857 35.1035421,13.4707885 C34.0775834,15.1510741 34.1158179,17.7525788 34.7718869,19.4814537 C35.2663283,20.7837597 36.3849766,21.5767257 37.8375972,22.2304212 C39.2910869,22.8843992 40.1774317,22.9827078 41.7696662,22.3507645 C42.8807834,21.9095059 43.9739421,21.5292664 44.7270455,20.5148236 L44.7270455,20.5148236 Z" id="Fill-26" fill="#FEFEFE"></path>
                                <g id="Group-30" transform="translate(33.310345, 8.750056)">
                                    <mask id="mask-4" fill="white">
                                        <use xlink:href="#path-3"></use>
                                    </mask>
                                    <g id="Clip-29"></g>
                                    <path d="M13.1307641,0.122179475 L1.59408828,0.122179475 C0.835191724,0.122179475 0.219384828,0.545640821 0.219384828,1.06769323 L0.219384828,5.86136608 C0.371164138,5.28309698 0.609550345,4.75511215 0.962929655,4.32119846 L0.967853793,4.32345842 C1.7716469,3.20646966 2.89782621,2.45955051 4.17462621,2.02563681 C5.93515034,1.42731051 7.82920552,1.53352897 9.50746759,2.32479997 C9.84433655,2.48356266 10.1649848,2.6663375 10.4662262,2.87058204 C11.6665572,3.68417021 12.5711503,4.84155589 13.0615366,6.21420345 C13.7126814,8.03686696 13.3132469,10.2629346 12.3382676,11.9748597 L12.3408745,11.9765547 C11.5706814,13.4181313 10.6000469,13.67379 9.21694345,14.2226796 C9.13120552,14.2568616 9.04865379,14.2879361 8.96639172,14.3192932 L13.1307641,14.3192932 C13.8905297,14.3192932 14.5066262,13.8961143 14.5066262,13.3740619 L14.5066262,1.06769323 C14.5066262,0.545640821 13.8905297,0.122179475 13.1307641,0.122179475" id="Fill-28" fill="#FEFEFE" mask="url(#mask-4)"></path>
                                </g>
                                <g id="Group-33" transform="translate(33.310345, 18.354917)">
                                    <mask id="mask-6" fill="white">
                                        <use xlink:href="#path-5"></use>
                                    </mask>
                                    <g id="Clip-32"></g>
                                    <path d="M0.518308966,1.45742457 C0.404764138,1.07492513 0.302226207,0.659656164 0.219095172,0.226307461 L0.219095172,3.76880598 C0.219095172,4.29114089 0.835191724,4.71431974 1.59379862,4.71431974 L3.73782621,4.71431974 C3.51826759,4.63324342 3.27292966,4.5244825 2.99775724,4.36317735 C1.75919172,3.63857538 0.94526069,2.89335121 0.518308966,1.45742457" id="Fill-31" fill="#FEFEFE" mask="url(#mask-6)"></path>
                                </g>
                                <path d="M40.8397862,17.5142935 C40.8397862,17.514011 40.8400759,17.514011 40.8400759,17.514011 L40.8400759,17.513446 L40.8397862,17.5142935 Z" id="Fill-34" fill="#FEFEFE"></path>
                                <path d="M40.8856097,16.9163344 L40.8856097,16.9157694 C40.8856097,16.9154869 40.88532,16.9154869 40.88532,16.9154869 L40.8856097,16.9163344 Z" id="Fill-36" fill="#FEFEFE"></path>
                                <polygon id="Fill-38" fill="#FEFEFE" points="40.5554897 16.2845889 40.5552 16.2845889 40.5546207 16.2843064"></polygon>
                                <polygon id="Fill-40" fill="#FEFEFE" points="39.8491945 16.1474654 39.8489048 16.1474654 39.8480359 16.1474654"></polygon>
                                <path d="M39.2446841,16.3996212 L39.2446841,16.3999037 C39.2443945,16.3999037 39.2443945,16.3999037 39.2441048,16.4001862 L39.2446841,16.3996212 Z" id="Fill-42" fill="#FEFEFE"></path>
                                <g id="Group-46" transform="translate(16.510345, 8.750056)">
                                    <mask id="mask-8" fill="white">
                                        <use xlink:href="#path-7"></use>
                                    </mask>
                                    <g id="Clip-45"></g>
                                    <path d="M13.1689407,0.122179475 L1.63139586,0.122179475 C0.87249931,0.122179475 0.256402759,0.548183284 0.256402759,1.07362565 L0.256402759,7.53091681 C0.334609655,7.44390808 0.84729931,6.90716588 1.68150621,6.80405488 C2.58986483,6.69190401 3.52081655,7.28627537 3.86579586,7.36480923 C4.1285131,7.42441586 4.81354759,7.4215909 5.1249269,7.41707097 C5.12608552,7.39221133 5.12840276,7.36819918 5.13216828,7.34418703 C4.78313379,7.18881429 3.85884414,6.80348989 2.75062345,6.55743596 C1.33681655,6.24358302 0.796609655,4.44973409 0.807906207,3.57540929 C0.819202759,2.700802 0.589506207,1.64680982 0.589506207,1.64680982 C2.86561655,2.64458532 2.56669241,2.08411346 3.76209931,2.64458532 C4.95779586,3.20533967 5.08437517,3.68756016 5.19907862,4.39351741 C5.31407172,5.10003964 5.21095448,5.53706079 5.24513379,5.8735134 C5.26743724,6.08849278 5.44586483,6.53059885 5.57215448,6.82241711 C5.62429241,6.80348989 5.67990621,6.79134256 5.73725793,6.78484516 C5.76912,6.4927444 5.8085131,6.04442342 5.8085131,5.62689448 C5.49800276,3.33980772 6.4637131,2.77933586 7.36048552,2.34203222 C8.25696828,1.90472857 9.00427862,1.71404384 9.98157517,1.187189 C9.64818207,3.13810565 10.1768028,3.6985775 9.76288552,5.04382296 C9.34925793,6.3893509 7.95833379,6.52381895 7.47547862,6.61365264 C7.05229241,6.6921865 6.58536828,7.14050749 6.47616828,7.25068089 C6.48949241,7.2910778 6.49876138,7.3326047 6.50368552,7.37610906 C6.58594759,7.37667406 7.04215448,7.37441409 7.52153379,7.25237586 C8.41801655,6.82637205 8.64800276,6.64698716 9.49843034,6.64698716 C10.3491476,6.64698716 11.1998648,7.61114565 11.4759062,8.02613212 C11.7516579,8.44111859 12.5910786,9.28182637 12.5910786,9.28182637 L13.1590924,9.7064177 L11.866651,10.0553001 C11.866651,10.0553001 9.95840276,10.8290564 8.92375448,10.615772 C7.88910621,10.4030526 7.59278897,9.69229291 7.2249269,9.15442072 C6.97032,8.78180864 6.50774069,8.26681862 6.24676138,7.98488772 C6.21316138,8.01087734 6.17695448,8.03375951 6.13872,8.05353422 C6.37189241,8.64338565 6.98335448,9.56319228 7.20378207,9.8578355 C7.23854069,9.8990799 7.28314759,9.95642657 7.33238897,10.029593 C7.51834759,10.2815793 7.69069241,10.5688777 7.70140966,11.0655055 C7.73529931,11.4485699 7.67128552,11.9053657 7.41175448,12.4180958 C7.35005793,12.5562363 7.30284414,12.6339227 7.30284414,12.6339227 L7.29270621,12.6339227 C7.2501269,12.7053941 7.20523034,12.7771481 7.15454069,12.8503145 C6.44401655,13.8788821 6.43967172,13.67718 5.81517517,14.3192932 L13.1689407,14.3192932 C13.9278372,14.3192932 14.5436441,13.8935719 14.5436441,13.3681295 L14.5436441,1.07362565 C14.5436441,0.548183284 13.9278372,0.122179475 13.1689407,0.122179475" id="Fill-44" fill="#FEFEFE" mask="url(#mask-8)"></path>
                                </g>
                                <g id="Group-49" transform="translate(16.510345, 16.659941)">
                                    <mask id="mask-10" fill="white">
                                        <use xlink:href="#path-9"></use>
                                    </mask>
                                    <g id="Clip-48"></g>
                                    <path d="M3.73930345,3.04781996 C3.75204828,2.98482338 3.76797931,2.92578173 3.78535862,2.86815257 C3.84242069,2.5427173 3.98551034,2.21332709 4.25633793,1.89890916 C5.00075172,1.0358842 5.21277931,0.548013787 5.40047586,0.086980486 C5.36890345,0.0635333268 5.33906897,0.038673688 5.31184138,0.0107065944 C4.74672414,0.452247678 4.01505517,1.38307165 4.01505517,1.38307165 C4.01505517,1.38307165 3.67065517,2.08931139 3.02675172,2.54921471 C2.38255862,3.00855303 1.23349655,2.88538482 1.23349655,2.88538482 L0.256489655,2.71927723 L0.256489655,5.45835743 C0.256489655,5.9835173 0.872586207,6.40952111 1.63148276,6.40952111 L4.98076552,6.40952111 C4.88546897,6.15612229 4.77134483,5.87390889 4.65693103,5.64254476 C4.37915172,5.07981293 3.55595172,3.9602817 3.73930345,3.04781996" id="Fill-47" fill="#FEFEFE" mask="url(#mask-10)"></path>
                                </g>
                                <path d="M21.6424841,16.0943561 C21.638429,16.1180858 21.6364014,16.1423804 21.6352428,16.1669576 C21.7322772,16.1652626 21.7939738,16.1638501 21.7939738,16.1638501 C21.7939738,16.1638501 21.7389393,16.1372955 21.6424841,16.0943561" id="Fill-50" fill="#FEFEFE"></path>
                                <path d="M22.2475448,15.5350143 C22.1901931,15.5415117 22.134869,15.5533765 22.082731,15.5725862 C22.1539862,15.7375638 22.208731,15.8550821 22.208731,15.8550821 C22.208731,15.8550821 22.2264,15.7293714 22.2475448,15.5350143" id="Fill-52" fill="#FEFEFE"></path>
                                <path d="M21.8220993,16.6705348 C21.8493269,16.6985018 21.8791614,16.723644 21.9113131,16.7468086 C21.9379614,16.6807046 21.96432,16.6148831 21.9915476,16.5490615 C21.9376717,16.5826785 21.8806097,16.6247704 21.8220993,16.6705348" id="Fill-54" fill="#FEFEFE"></path>
                                <path d="M22.6492097,16.8036468 C22.6874441,16.7838721 22.723651,16.7609899 22.7569614,16.7350003 C22.6410993,16.6095721 22.5646303,16.5299083 22.5646303,16.5299083 C22.5782441,16.6073122 22.6089476,16.7011008 22.6492097,16.8036468" id="Fill-56" fill="#FEFEFE"></path>
                                <path d="M22.9971434,16.1258262 C22.9971434,16.1258262 23.0058331,16.1258262 23.0142331,16.1261087 C23.0090193,16.0826043 22.9997503,16.0410774 22.9867159,16.000398 C22.9710745,16.0159353 22.9626745,16.0249751 22.9626745,16.0249751 L22.9971434,16.1258262 Z" id="Fill-58" fill="#FEFEFE"></path>
                                <path d="M21.8220993,16.6705348 C21.8806097,16.6247704 21.9376717,16.5826785 21.9915476,16.5490615 C21.96432,16.6148831 21.9379614,16.6807046 21.9113131,16.7468086 C22.0271752,16.8318399 22.1702648,16.8843841 22.3266786,16.8843841 C22.4436993,16.8843841 22.55232,16.8533096 22.6490648,16.8035903 C22.6088028,16.7010443 22.5780993,16.6072557 22.5647752,16.5298518 C22.5647752,16.5298518 22.6412441,16.6092331 22.7573959,16.7349438 C22.9175752,16.6106456 23.02272,16.4210909 23.02272,16.205829 C23.02272,16.1784269 23.0172166,16.1524373 23.0140303,16.1258827 C23.0056303,16.1258827 22.9972303,16.1256002 22.9972303,16.1256002 L22.9627614,16.0250316 C22.9627614,16.0250316 22.9708717,16.0159918 22.9868028,16.0004545 C22.89672,15.726716 22.637189,15.5272739 22.3266786,15.5272739 C22.299451,15.5272739 22.274251,15.5320763 22.2478924,15.5349013 C22.2264579,15.7292584 22.208789,15.8552516 22.208789,15.8552516 C22.208789,15.8552516 22.1540441,15.7377333 22.0824993,15.5724732 C21.8536717,15.656657 21.6836441,15.8532741 21.6425131,16.0942431 C21.7389683,16.1371825 21.7940028,16.1637371 21.7940028,16.1637371 C21.7940028,16.1637371 21.7320166,16.1654321 21.6349821,16.1668446 C21.6344028,16.1801219 21.6312166,16.1922692 21.6312166,16.205829 C21.6312166,16.3860614 21.704789,16.5490615 21.8220993,16.6705348" id="Fill-60" fill="#FEFEFE"></path>
                                <path d="M18.313709,11.7374784 C19.2113503,12.3180075 19.8277366,12.9779179 20.1495434,13.5657919 C20.462371,14.1358686 20.9907021,15.2330826 21.1306055,15.1748885 C21.2554469,15.1234742 20.9220538,14.1268287 20.4151572,13.2951608 C19.9493917,12.5327044 18.9271986,11.8100799 18.313709,11.7374784" id="Fill-62" fill="#FEFEFE"></path>
                                <path d="M20.6951849,16.9815627 C20.691691,16.8671519 19.818091,16.8439872 19.0224083,17.0075524 C18.2924772,17.1575577 17.4316221,17.7623814 17.1961324,18.2299121 C17.9101324,17.6832825 18.6038566,17.3835544 19.1559393,17.2968282 C19.6909324,17.2129269 20.700091,17.1092509 20.6951849,16.9815627" id="Fill-64" fill="#FEFEFE"></path>
                                <path d="M25.6679669,17.9408058 C26.4057186,18.2560712 27.5206014,18.2648286 27.9979531,18.0102998 C27.0481738,18.0416568 26.2565462,17.8752667 25.7140221,17.6133931 C25.1880083,17.3602767 24.2275117,16.8356819 24.1585738,16.9472677 C24.0962979,17.0467063 24.8641738,17.5964433 25.6679669,17.9408058" id="Fill-66" fill="#FEFEFE"></path>
                                <path d="M24.5616579,13.7324644 C25.08072,13.1372456 25.4042648,12.0617837 25.2886924,11.5038543 C25.0505959,12.4352433 24.6636166,13.1380931 24.2525959,13.5646619 C23.85432,13.9788009 23.0664579,14.7107477 23.1565407,14.8195087 C23.2367752,14.9169697 23.9953821,14.3813575 24.5616579,13.7324644" id="Fill-68" fill="#FEFEFE"></path>
                                <path d="M22.2223738,19.3247249 C22.2944979,18.836007 22.4790083,17.9277827 22.3663324,17.9017931 C22.2658221,17.878346 22.008029,18.6385424 21.9335876,19.3738792 C21.8660979,20.0487619 22.1586497,20.9442739 22.5024703,21.2598218 C22.2200566,20.5066878 22.1476428,19.8286976 22.2223738,19.3247249" id="Fill-70" fill="#FEFEFE"></path>
                                <path d="M74.8315448,13.6707956 C76.0564966,13.6707956 77.0532,14.642864 77.0532,15.8375391 C77.0532,17.0324967 76.0564966,18.0042826 74.8315448,18.0042826 C73.6063034,18.0042826 72.6093103,17.0324967 72.6093103,15.8375391 C72.6093103,14.642864 73.6063034,13.6707956 74.8315448,13.6707956 M74.8926621,18.704025 C76.5448552,18.704025 77.8888552,17.393244 77.8888552,15.7818874 C77.8888552,14.1705308 76.5448552,12.8597499 74.8926621,12.8597499 C73.240469,12.8597499 71.8961793,14.1705308 71.8961793,15.7818874 C71.8961793,17.393244 73.240469,18.704025 74.8926621,18.704025" id="Fill-72" fill="#FEFEFE"></path>
                                <path d="M78.9390579,9.36990859 C80.1770441,10.0945106 80.9912648,10.8397347 81.4182166,12.2756614 C81.4500786,12.3824448 81.4802028,12.4931832 81.5100372,12.6050516 L81.5100372,9.72528843 C81.5100372,9.20295352 80.8942303,8.77920967 80.1350441,8.77920967 L77.3650717,8.77920967 C77.3899821,8.78542458 77.4131545,8.79079201 77.4383545,8.79728941 C77.7966579,8.88966557 78.2864648,8.98797414 78.9390579,9.36990859" id="Fill-74" fill="#FEFEFE"></path>
                                <path d="M74.8923724,12.5449647 C76.7224138,12.5449647 78.2112414,13.9969936 78.2112414,15.7818027 C78.2112414,17.5666117 76.7224138,19.0186406 74.8923724,19.0186406 C73.0626207,19.0186406 71.5737931,17.5666117 71.5737931,15.7818027 C71.5737931,13.9969936 73.0626207,12.5449647 74.8923724,12.5449647 M75.2185241,19.679116 C77.5968828,19.679116 79.5256966,17.7979759 79.5256966,15.4778371 C79.5256966,13.1576983 77.5621241,11.4022688 75.1837655,11.4022688 C72.8042483,11.4022688 70.9107724,13.1576983 70.9107724,15.4778371 C70.9107724,17.7979759 72.8387172,19.679116 75.2185241,19.679116" id="Fill-76" fill="#FEFEFE"></path>
                                <path d="M74.8575848,17.3551071 C75.7294469,17.3551071 76.4382331,16.6632746 76.4382331,15.812962 C76.4382331,14.9623668 75.7294469,14.2702519 74.8575848,14.2702519 C73.9848538,14.2702519 73.2746193,14.9623668 73.2746193,15.812962 C73.2746193,16.6632746 73.9848538,17.3551071 74.8575848,17.3551071" id="Fill-78" fill="#FEFEFE"></path>
                                <g id="Group-82" transform="translate(67.200000, 8.750056)">
                                    <mask id="mask-12" fill="white">
                                        <use xlink:href="#path-11"></use>
                                    </mask>
                                    <g id="Clip-81"></g>
                                    <path d="M13.7734221,10.2666636 L13.7687876,10.2646861 C12.9647048,11.3813924 11.8391048,12.1283115 10.5617255,12.5625077 C8.80120138,13.160834 6.90772552,13.0546155 5.22859448,12.2633445 C4.89259448,12.1042994 4.57194621,11.921807 4.27041517,11.71728 C3.07037379,10.9039743 2.16549103,9.74630612 1.67481517,8.37394106 C1.02396,6.55127755 1.42368414,4.3249274 2.3989531,2.61328478 L2.3957669,2.6115898 C3.16538069,1.16973075 4.13659448,0.914354463 5.51940828,0.365464939 C5.85714621,0.231279389 6.16562897,0.119693511 6.45673241,0.0292948243 L1.39790483,0.0292948243 C0.63813931,0.0292948243 0.0223324138,0.453038667 0.0223324138,0.975373576 L0.0223324138,13.3735534 C0.0223324138,13.8958883 0.63813931,14.3193497 1.39790483,14.3193497 L12.93516,14.3193497 C13.6943462,14.3193497 14.3101531,13.8958883 14.3101531,13.3735534 L14.3101531,9.34233699 C14.1705393,9.67963709 13.9967462,9.99292504 13.7734221,10.2666636" id="Fill-80" fill="#FEFEFE" mask="url(#mask-12)"></path>
                                </g>
                                <path d="M75.1585366,10.8678996 C77.4065503,10.8678996 79.8153228,12.1159664 80.1177228,15.1174853 L79.9746331,16.6045437 C79.7530469,18.7712872 77.4065503,20.2052364 75.1585366,20.2052364 C72.5139848,20.2052364 70.3705366,18.1150493 70.3705366,15.5367092 C70.3705366,12.9583692 72.5139848,10.8678996 75.1585366,10.8678996 M70.519709,11.5732918 C69.55284,13.0852099 69.1534055,15.1409325 69.7547297,16.8248905 C70.2865366,18.3127964 71.3799848,19.5097315 72.8346331,20.1950665 C74.2887021,20.8804016 75.9301779,20.9727777 77.4552124,20.4543978 C78.5202745,20.0925205 79.43964,19.4594472 80.1437917,18.6170445 C81.1694607,16.9370414 81.1315159,14.3355367 80.4748676,12.6066618 C79.9801366,11.3043557 78.8620676,10.5113898 77.4091572,9.85741176 C75.9559572,9.20371626 75.0693228,9.10540768 73.4773779,9.73706851 C72.3662607,10.1783271 71.2731021,10.5585666 70.519709,11.5732918" id="Fill-83" fill="#FEFEFE"></path>
                                <path d="M12.9166221,8.80630103 L4.53834621,8.80630103 C4.70634621,9.15405348 4.97253931,9.69814057 5.3945669,10.5512782 C6.49004276,12.763786 6.80808414,15.3610533 8.05939448,16.3147594 C9.31157379,17.2684656 10.9542083,18.7182345 12.7926497,19.061467 C12.7926497,19.061467 13.1057669,19.7100776 10.1330359,18.4131389 C7.16001517,17.1159178 6.4561531,15.6661488 6.4561531,15.6661488 C6.4561531,15.6661488 7.08151862,19.1377409 7.82506345,20.2439948 C8.56831862,21.3505312 9.50709103,22.2661004 9.50709103,22.2661004 C9.50709103,22.2661004 8.76383586,22.2661004 7.7465669,20.9688793 C6.72987724,19.6719406 5.98662207,17.7645284 5.75200138,15.9331075 C5.51738069,14.1019691 3.87445655,11.355544 3.87445655,11.355544 C3.87445655,11.355544 3.67836,12.9194413 3.67836,13.9112843 C3.67836,14.9034099 3.87445655,16.581718 4.46100828,17.6882545 C5.04756,18.7945084 5.71289793,19.4428365 5.71289793,19.4428365 C5.71289793,19.4428365 4.85204276,19.2521517 4.38280138,18.4894128 C3.91356,17.7263914 3.17030483,15.9712444 3.17030483,15.9712444 C3.17030483,15.9712444 2.97478759,17.3828764 1.68379448,18.4131389 C1.68379448,18.4131389 2.77898069,16.7726853 2.89658069,15.589875 C3.01389103,14.4073471 3.56133931,11.6606396 2.27063586,9.943912 C1.88365655,9.42948698 1.54012552,9.06789223 1.24699448,8.81082097 C0.550084138,8.8568678 0.00408413793,9.26309689 0.00408413793,9.75746471 L0.00408413793,22.052251 C0.00408413793,22.5776934 0.62018069,23.0034147 1.37907724,23.0034147 L12.9166221,23.0034147 C13.6755186,23.0034147 14.2916152,22.5776934 14.2916152,22.052251 L14.2916152,9.75746471 C14.2916152,9.23230484 13.6755186,8.80630103 12.9166221,8.80630103" id="Fill-85" fill="#FEFEFE"></path>
                                <g id="Group-89" transform="translate(81.103448, 0.275179)">
                                    <mask id="mask-14" fill="white">
                                        <use xlink:href="#path-13"></use>
                                    </mask>
                                    <g id="Clip-88"></g>
                                    <path d="M1.19746345,1.08622497 L1.19746345,0.671803488 L1.48740828,0.671803488 C1.63484276,0.671803488 1.79212552,0.702030548 1.79212552,0.867573143 C1.79212552,1.07436014 1.6313669,1.08622497 1.45236,1.08622497 L1.19746345,1.08622497 Z M1.19746345,1.25854746 L1.44164276,1.25854746 L1.81182207,1.83935902 L2.04962897,1.83935902 L1.65106345,1.2492251 C1.85729793,1.22436546 2.01458069,1.12068946 2.01458069,0.88085045 C2.01458069,0.6158693 1.85005655,0.499198496 1.51898069,0.499198496 L0.985725517,0.499198496 L0.985725517,1.83935902 L1.19746345,1.83935902 L1.19746345,1.25854746 Z M1.4549669,2.33146687 C2.11740828,2.33146687 2.68281517,1.83935902 2.68281517,1.16560631 C2.68281517,0.499198496 2.11740828,0.00737314286 1.4549669,0.00737314286 C0.785863448,0.00737314286 0.219877241,0.499198496 0.219877241,1.16560631 C0.219877241,1.83935902 0.785863448,2.33146687 1.4549669,2.33146687 L1.4549669,2.33146687 Z M0.464056552,1.16560631 C0.464056552,0.6158693 0.898828966,0.200882831 1.4549669,0.200882831 C2.00560138,0.200882831 2.43921517,0.6158693 2.43921517,1.16560631 C2.43921517,1.72551318 2.00560138,2.13767469 1.4549669,2.13767469 C0.898828966,2.13767469 0.464056552,1.72551318 0.464056552,1.16560631 L0.464056552,1.16560631 Z" id="Fill-87" fill="#FEFEFE" mask="url(#mask-14)"></path>
                                </g>
                                <path d="M5.98158207,4.61355346 L4.31983034,1.53124075 L2.63809241,4.61355346 L5.98158207,4.61355346 Z M8.44104414,6.98651898 L7.25838207,6.98651898 L6.5067269,5.56302216 L2.11323724,5.56302216 L1.3607131,6.98651898 L0.17834069,6.98651898 L3.62958207,0.62414643 L4.99009241,0.62414643 L8.44104414,6.98651898 Z" id="Fill-90" fill="#FEFEFE"></path>
                                <g id="Group-94" transform="translate(0.000000, 0.275179)">
                                    <mask id="mask-16" fill="white">
                                        <use xlink:href="#path-15"></use>
                                    </mask>
                                    <g id="Clip-93"></g>
                                    <path d="M2.81686759,4.23353998 L5.80408138,4.23353998 L4.31930897,1.48005249 L2.81686759,4.23353998 Z M6.15948828,4.44315193 L2.45914345,4.44315193 L4.32046759,1.032014 L6.15948828,4.44315193 Z M7.32419172,6.6065055 L8.26296414,6.6065055 L4.92526759,0.453744906 L3.6942331,0.453744906 L0.356826207,6.6065055 L1.29530897,6.6065055 L2.04725379,5.18300868 L6.5722469,5.18300868 L7.32419172,6.6065055 Z M8.61952966,6.81611745 L7.19297793,6.81611745 L6.44132276,5.39262064 L2.17817793,5.39262064 L1.4262331,6.81611745 L-2.89655172e-05,6.81611745 L3.56475724,0.244132952 L5.05474345,0.244132952 L8.61952966,6.81611745 Z" id="Fill-92" fill="#FEFEFE" mask="url(#mask-16)"></path>
                                </g>
                                <path d="M17.4605876,4.92969461 C17.4605876,5.59214749 17.1298014,6.1280422 16.4693876,6.53766125 C15.796229,6.96536003 14.8982979,7.17949192 13.7753048,7.17949192 C12.6520221,7.17949192 11.7482979,6.96536003 11.0629738,6.53766125 C10.40256,6.12210979 10.0723531,5.58649757 10.0723531,4.92969461 L10.0723531,0.62417468 L11.1536359,0.62417468 L11.1536359,4.67460082 C11.1536359,5.17292358 11.37696,5.55372805 11.8247669,5.81701422 C12.2719945,6.08143038 12.9222703,6.21307346 13.7753048,6.21307346 C14.62776,6.21307346 15.2757186,6.08143038 15.7168634,5.81701422 C16.1582979,5.55372805 16.3793048,5.17292358 16.3793048,4.67460082 L16.3793048,0.62417468 L17.4605876,0.62417468 L17.4605876,4.92969461 Z" id="Fill-95" fill="#FEFEFE"></path>
                                <path d="M10.1796124,0.728952407 L10.1796124,4.92966636 C10.1796124,5.55426479 10.4878055,6.05117507 11.1209917,6.44977678 C11.785171,6.86448075 12.6781779,7.07465769 13.7753917,7.07465769 C14.8720262,7.07465769 15.7586607,6.86448075 16.4109641,6.45005927 C17.045309,6.05682499 17.3535021,5.55963221 17.3535021,4.92966636 L17.3535021,0.728952407 L16.4865641,0.728952407 L16.4865641,4.67485507 C16.4865641,5.2096198 16.24644,5.62432377 15.7731434,5.90653717 C15.3172262,6.1794282 14.6449366,6.31785119 13.7753917,6.31785119 C12.9058469,6.31785119 12.2306607,6.1797107 11.7689503,5.90681967 C11.2892814,5.62460627 11.045971,5.20990229 11.045971,4.67485507 L11.045971,0.728952407 L10.1796124,0.728952407 Z M13.7753917,7.28426965 C12.6364676,7.28426965 11.7046469,7.06307536 11.0054193,6.62605421 C10.3145917,6.19185802 9.96468828,5.62121632 9.96468828,4.92966636 L9.96468828,0.519340453 L11.2608952,0.519340453 L11.2608952,4.67485507 C11.2608952,5.13814833 11.4636538,5.48222833 11.8798883,5.72743477 C12.3082883,5.9802686 12.9458193,6.10823924 13.7753917,6.10823924 C14.6046745,6.10823924 15.2387297,5.98055109 15.6607572,5.72799976 C16.0717779,5.48279333 16.27164,5.13814833 16.27164,4.67485507 L16.27164,0.519340453 L17.5678469,0.519340453 L17.5678469,4.92966636 C17.5678469,5.62743122 17.2176538,6.19807293 16.5268262,6.62633671 C15.8403434,7.06279287 14.9146055,7.28426965 13.7753917,7.28426965 L13.7753917,7.28426965 Z" id="Fill-97" fill="#FEFEFE"></path>
                                <path d="M25.0289586,3.61199251 C25.8637448,3.61199251 26.2817172,3.28401478 26.2817172,2.62805931 C26.2817172,1.92520952 25.8307241,1.57293714 24.9298966,1.57293714 L21.1273034,1.57293714 L21.1273034,3.61199251 L25.0289586,3.61199251 Z M27.4435241,6.98640598 L26.1858414,6.98640598 L24.4201034,4.56089622 L21.1273034,4.56089622 L21.1273034,6.98640598 L20.0463103,6.98640598 L20.0463103,0.624315928 L25.1908759,0.624315928 C25.8759103,0.624315928 26.4135103,0.804265813 26.8042552,1.16473057 C27.1944207,1.52463034 27.3896483,2.01250076 27.3896483,2.62721182 C27.3896483,3.16677898 27.2303379,3.60012768 26.9120069,3.92810542 C26.6174276,4.23263599 26.2124897,4.42642818 25.6957448,4.507787 L27.4435241,6.98640598 Z" id="Fill-99" fill="#FEFEFE"></path>
                                <path d="M21.235171,3.50715829 L25.0290745,3.50715829 C25.7995572,3.50715829 26.1740814,3.21957746 26.1740814,2.62803106 C26.1740814,1.98846035 25.7671159,1.67771487 24.9300124,1.67771487 L21.235171,1.67771487 L21.235171,3.50715829 Z M25.0290745,3.71677024 L21.0202469,3.71677024 L21.0202469,1.46838541 L24.9300124,1.46838541 C26.1358469,1.46838541 26.3890055,2.09891625 26.3890055,2.62803106 C26.3890055,3.12465884 26.1529366,3.71677024 25.0290745,3.71677024 L25.0290745,3.71677024 Z M26.2412814,6.88157175 L27.2394331,6.88157175 L25.5113503,4.43091986 L25.678771,4.40436525 C26.1682883,4.32724387 26.5572952,4.14277405 26.8336262,3.85660571 C27.1311021,3.54981517 27.2825917,3.13595868 27.2825917,2.62718357 C27.2825917,2.04495953 27.0963434,1.57855881 26.730509,1.24097622 C26.3623572,0.901133655 25.8444538,0.729093655 25.1907021,0.729093655 L20.1535986,0.729093655 L20.1535986,6.88157175 L21.0202469,6.88157175 L21.0202469,4.456062 L24.4758331,4.456062 L26.2412814,6.88157175 Z M27.6481366,7.0911837 L26.1303434,7.0911837 L24.3648952,4.66567395 L21.235171,4.66567395 L21.235171,7.0911837 L19.9383848,7.0911837 L19.9383848,0.519481701 L25.1907021,0.519481701 C25.9012262,0.519481701 26.4686607,0.711013918 26.8776538,1.08842843 C27.2886745,1.46753792 27.4972262,1.9850704 27.4972262,2.62718357 C27.4972262,3.19161037 27.3266193,3.65349116 26.9897503,4.00011362 C26.7125503,4.28741195 26.3386055,4.48233411 25.8774745,4.58092518 L27.6481366,7.0911837 Z" id="Fill-101" fill="#FEFEFE"></path>
                                <path d="M34.4271972,4.61355346 L32.7654455,1.53124075 L31.0834179,4.61355346 L34.4271972,4.61355346 Z M36.8863697,6.98651898 L35.7037076,6.98651898 L34.9520524,5.56302216 L30.5585628,5.56302216 L29.8063283,6.98651898 L28.6242455,6.98651898 L32.0751972,0.62414643 L33.4354179,0.62414643 L36.8863697,6.98651898 Z" id="Fill-103" fill="#FEFEFE"></path>
                                <path d="M31.2621931,4.50871923 L34.2494069,4.50871923 L32.7646345,1.75523174 L31.2621931,4.50871923 Z M34.6048138,4.71833119 L30.9047586,4.71833119 L32.7657931,1.30719325 L34.6048138,4.71833119 Z M35.7695172,6.88168475 L36.7082897,6.88168475 L33.3705931,0.728924158 L32.1395586,0.728924158 L28.8021517,6.88168475 L29.7406345,6.88168475 L30.492869,5.45818793 L35.0178621,5.45818793 L35.7695172,6.88168475 Z M37.0645655,7.0912967 L35.6383034,7.0912967 L34.8869379,5.66779989 L30.6235034,5.66779989 L29.8715586,7.0912967 L28.4452966,7.0912967 L32.0100828,0.519312204 L33.5003586,0.519312204 L37.0645655,7.0912967 Z" id="Fill-105" fill="#FEFEFE"></path>
                                <path d="M49.3297241,2.07371762 L48.3472138,2.41666763 C47.6865103,1.73133259 46.7616414,1.38838257 45.5720276,1.38838257 C44.6714897,1.38838257 43.9369241,1.61409679 43.3692,2.06524274 C42.8017655,2.51638868 42.5176138,3.09013785 42.5176138,3.78733771 C42.5176138,4.50770225 42.7985793,5.08964379 43.3602207,5.53174987 C43.9218621,5.97442093 44.6798897,6.19561522 45.6354621,6.19561522 C46.7891586,6.19561522 47.6954897,5.84673279 48.3561931,5.14953292 L49.2848276,5.65039814 C48.8161655,6.18375039 48.2858069,6.56907479 47.694331,6.80580635 C47.1028552,7.0431029 46.3949379,7.16203367 45.5720276,7.16203367 C44.4189103,7.16203367 43.460731,6.88066776 42.6977793,6.31878343 C41.8273655,5.6738453 41.3917241,4.83059505 41.3917241,3.78733771 C41.3917241,2.76216011 41.8331586,1.92427729 42.7160276,1.27425423 C43.4847724,0.706437484 44.4365793,0.421964118 45.5720276,0.421964118 C47.2062621,0.421964118 48.4581517,0.972266122 49.3297241,2.07371762" id="Fill-107" fill="#FEFEFE"></path>
                                <path d="M45.5721434,0.526741846 C44.4665297,0.526741846 43.5271779,0.806412782 42.7810262,1.35784477 C41.930309,1.98413817 41.4987228,2.80168129 41.4987228,3.78730946 C41.4987228,4.79073488 41.9242262,5.61421042 42.7630676,6.23513639 C43.5028469,6.78035347 44.448571,7.05719945 45.5721434,7.05719945 C46.3770952,7.05719945 47.0774814,6.93996365 47.6536055,6.70888201 C48.1903366,6.49418513 48.6813021,6.14812766 49.1154952,5.67890198 L48.3768745,5.28058277 C47.7025572,5.95716043 46.7808745,6.30011045 45.6355779,6.30011045 C44.6591503,6.30011045 43.8709986,6.06902881 43.2928469,5.61308043 C42.7071641,5.15232963 42.4105572,4.53790106 42.4105572,3.78730946 C42.4105572,3.06073002 42.7103503,2.45392884 43.3015366,1.98385567 C43.885771,1.51914992 44.6495917,1.28354835 45.5721434,1.28354835 C46.7582814,1.28354835 47.7008193,1.62367341 48.3768745,2.29516615 L49.1517021,2.02425258 C48.3096745,1.03043203 47.1061572,0.526741846 45.5721434,0.526741846 M45.5721434,7.26652891 C44.4004883,7.26652891 43.4118952,6.97584063 42.6333021,6.40237396 C41.7379779,5.7393561 41.2840883,4.85966388 41.2840883,3.78730946 C41.2840883,2.7321873 41.7443503,1.85870999 42.6512607,1.1906072 C43.4359366,0.611208118 44.4187366,0.317129892 45.5721434,0.317129892 C47.2330262,0.317129892 48.5263366,0.886641616 49.414709,2.00984529 L49.5047917,2.12369114 L48.3174952,2.53839511 L48.2691228,2.48839334 C47.6327503,1.82791794 46.724971,1.4931603 45.5721434,1.4931603 C44.700571,1.4931603 43.9822262,1.71294211 43.4370952,2.14629081 C42.8908055,2.5807695 42.6254814,3.1175117 42.6254814,3.78730946 C42.6254814,4.48111938 42.8873297,5.02492398 43.4278262,5.4500803 C43.9668745,5.87523662 44.7095503,6.09078099 45.6355779,6.09078099 C46.751909,6.09078099 47.6408607,5.75009094 48.2772331,5.0785982 L48.3342952,5.01814408 L49.4523641,5.62099032 L49.3663366,5.7184514 C48.8884055,6.2625385 48.3397986,6.66085771 47.7349986,6.90267419 C47.1333848,7.14420818 46.4054814,7.26652891 45.5721434,7.26652891" id="Fill-109" fill="#FEFEFE"></path>
                                <path d="M56.4392814,4.61355346 L54.7775297,1.53124075 L53.0949228,4.61355346 L56.4392814,4.61355346 Z M58.8984538,6.98651898 L57.7157917,6.98651898 L56.9641366,5.56302216 L52.5703572,5.56302216 L51.8181228,6.98651898 L50.63604,6.98651898 L54.087571,0.62414643 L55.4477917,0.62414643 L58.8984538,6.98651898 Z" id="Fill-111" fill="#FEFEFE"></path>
                                <path d="M53.2740166,4.50871923 L56.26152,4.50871923 L54.7767476,1.75523174 L53.2740166,4.50871923 Z M56.6175062,4.71833119 L52.9160028,4.71833119 L54.7779062,1.30719325 L56.6175062,4.71833119 Z M57.78192,6.88168475 L58.7201131,6.88168475 L55.3832855,0.728924158 L54.1519614,0.728924158 L50.8142648,6.88168475 L51.7524579,6.88168475 L52.5046924,5.45818793 L57.0296855,5.45818793 L57.78192,6.88168475 Z M59.0769683,7.0912967 L57.6504166,7.0912967 L56.8987614,5.66779989 L52.6356166,5.66779989 L51.8833821,7.0912967 L50.4576993,7.0912967 L54.0224855,0.519312204 L55.5127614,0.519312204 L55.5431752,0.575246391 L59.0769683,7.0912967 Z" id="Fill-113" fill="#FEFEFE"></path>
                                <path d="M68.1881586,2.07371762 L67.2059379,2.41666763 C66.5452345,1.73133259 65.6200759,1.38838257 64.431331,1.38838257 C63.5299241,1.38838257 62.7959379,1.61409679 62.2282138,2.06524274 C61.6604897,2.51638868 61.3766276,3.09013785 61.3766276,3.78733771 C61.3766276,4.50770225 61.6573034,5.08964379 62.2192345,5.53174987 C62.7802966,5.97442093 63.5386138,6.19561522 64.4941862,6.19561522 C65.6475931,6.19561522 66.5542138,5.84673279 67.2157862,5.14953292 L68.1438414,5.65039814 C67.6748897,6.18375039 67.144531,6.56907479 66.5527655,6.80580635 C65.9615793,7.0431029 65.2536621,7.16203367 64.431331,7.16203367 C63.2779241,7.16203367 62.3194552,6.88066776 61.5570828,6.31878343 C60.6860897,5.6738453 60.2501586,4.83059505 60.2501586,3.78733771 C60.2501586,2.76216011 60.6918828,1.92427729 61.5750414,1.27425423 C62.3432069,0.706437484 63.2958828,0.421964118 64.431331,0.421964118 C66.0646966,0.421964118 67.3168759,0.972266122 68.1881586,2.07371762" id="Fill-115" fill="#FEFEFE"></path>
                                <path d="M64.431389,0.526741846 C63.3251959,0.526741846 62.3858441,0.806412782 61.6399821,1.35784477 C60.7889752,1.98442066 60.357389,2.80168129 60.357389,3.78730946 C60.357389,4.79045239 60.7828924,5.61421042 61.6220234,6.23513639 C62.3615131,6.78035347 63.3069476,7.05719945 64.431389,7.05719945 C65.2357614,7.05719945 65.9361476,6.93996365 66.5119821,6.70888201 C67.0487131,6.49446763 67.5399683,6.14812766 67.974451,5.67890198 L67.2364097,5.28058277 C66.5615131,5.95744293 65.639251,6.30011045 64.4942441,6.30011045 C63.5178166,6.30011045 62.7293752,6.06902881 62.1515131,5.61308043 C61.5658303,5.15232963 61.2692234,4.53818355 61.2692234,3.78730946 C61.2692234,3.06073002 61.5690166,2.45421134 62.1604924,1.98385567 C62.7453062,1.51914992 63.5088372,1.28354835 64.431389,1.28354835 C65.6169476,1.28354835 66.5594855,1.62367341 67.2355407,2.29516615 L68.0100786,2.02425258 C67.1683407,1.03043203 65.9651131,0.526741846 64.431389,0.526741846 M64.431389,7.26652891 C63.2588648,7.26652891 62.2699821,6.97584063 61.4922579,6.40237396 C60.5963545,5.7393561 60.1424648,4.85966388 60.1424648,3.78730946 C60.1424648,2.73246979 60.6027269,1.85870999 61.5105062,1.1906072 C62.2943131,0.611208118 63.2768234,0.317129892 64.431389,0.317129892 C66.0919821,0.317129892 67.3850028,0.886641616 68.2733752,2.00984529 L68.3634579,2.12369114 L67.1758717,2.53839511 L67.127789,2.48839334 C66.4911269,1.82791794 65.5839269,1.4931603 64.431389,1.4931603 C63.5598166,1.4931603 62.8417614,1.71294211 62.296051,2.14629081 C61.7497614,2.58105199 61.4838579,3.1175117 61.4838579,3.78730946 C61.4838579,4.48111938 61.7462855,5.02520648 62.2867821,5.4500803 C62.825251,5.87523662 63.5682166,6.09078099 64.4942441,6.09078099 C65.6102855,6.09078099 66.4995269,5.75009094 67.1367683,5.0785982 L67.1938303,5.01814408 L68.3110303,5.62099032 L68.2250028,5.7184514 C67.7470717,6.2625385 67.1981752,6.6611402 66.5933752,6.90267419 C65.9917614,7.14420818 65.2641476,7.26652891 64.431389,7.26652891" id="Fill-117" fill="#FEFEFE"></path>
                                <mask id="mask-18" fill="white">
                                    <use xlink:href="#path-17"></use>
                                </mask>
                                <g id="Clip-120"></g>
                                <polygon id="Fill-119" fill="#FEFEFE" mask="url(#mask-18)" points="70.449931 6.98643423 71.5312138 6.98643423 71.5312138 0.624061681 70.449931 0.624061681"></polygon>
                                <path d="M70.5573931,6.88162825 L71.4237517,6.88162825 L71.4237517,0.728867658 L70.5573931,0.728867658 L70.5573931,6.88162825 Z M70.3427586,7.0912402 L71.6389655,7.0912402 L71.6389655,0.5195382 L70.3427586,0.5195382 L70.3427586,7.0912402 Z" id="Fill-121" fill="#FEFEFE" mask="url(#mask-18)"></path>
                                <path d="M79.0103421,4.61355346 L77.3483007,1.53124075 L75.6659834,4.61355346 L79.0103421,4.61355346 Z M81.4695145,6.98651898 L80.2862731,6.98651898 L79.5349076,5.56302216 L75.1411283,5.56302216 L74.3894731,6.98651898 L73.206811,6.98651898 L76.6583421,0.62414643 L78.0188524,0.62414643 L81.4695145,6.98651898 Z" id="Fill-122" fill="#FEFEFE" mask="url(#mask-18)"></path>
                                <path d="M75.8447876,4.50871923 L78.832291,4.50871923 L77.347229,1.75523174 L75.8447876,4.50871923 Z M79.1882772,4.71833119 L75.4870634,4.71833119 L77.3486772,1.30719325 L79.1882772,4.71833119 Z M80.3524014,6.88168475 L81.2911738,6.88168475 L77.9537669,0.728924158 L76.7227324,0.728924158 L73.3853255,6.88168475 L74.3240979,6.88168475 L75.0757531,5.45818793 L79.6004566,5.45818793 L80.3524014,6.88168475 Z M81.6477393,7.0912967 L80.2208979,7.0912967 L79.4698221,5.66779989 L75.2063876,5.66779989 L74.4547324,7.0912967 L73.0284703,7.0912967 L76.5932566,0.519312204 L78.0835324,0.519312204 L78.1136566,0.575246391 L81.6477393,7.0912967 Z" id="Fill-123" fill="#FEFEFE" mask="url(#mask-18)"></path>
                            </g>
                        </g>
                    </g>
                </g>
            </g>
        </g>
    </g>
</svg>