<?xml version="1.0" encoding="UTF-8"?>
<svg width="274px" height="131px" viewBox="0 0 274 131" version="1.1" xmlns="http://www.w3.org/2000/svg" xmlns:xlink="http://www.w3.org/1999/xlink">
    <title>logo/parchment-logo</title>
    <defs>
        <polygon id="path-1" points="0.0001 0.676 273.131 0.676 273.131 130 0.0001 130"></polygon>
        <polygon id="path-3" points="0 130.324 273.131 130.324 273.131 1 0 1"></polygon>
    </defs>
    <g id="logo/parchment-logo" stroke="none" stroke-width="1" fill="none" fill-rule="evenodd">
        <g id="Group-46" transform="translate(0.000000, -8.000000)">
            <g id="Group-3" transform="translate(0.000000, 0.324000)">
                <mask id="mask-2" fill="white">
                    <use xlink:href="#path-1"></use>
                </mask>
                <g id="Clip-2"></g>
                <path d="M273.1281,8.1868 L273.1281,3.6798 C273.1281,3.6798 253.9831,2.5528 252.0561,0.9498 C250.1281,-0.6532 222.7221,5.2708 220.1601,5.9328 C217.5981,6.5948 164.0031,3.6798 164.0031,3.6798 C164.0031,3.6798 149.9631,0.3008 141.0291,0.8628 C132.0941,1.4268 112.9501,4.8068 97.6341,4.8068 C82.3191,4.8068 63.8121,4.8068 52.9641,2.5528 C42.1151,0.3008 0.0001,8.1868 0.0001,8.1868 L0.0001,40.3858 L0.0001,116.2908 L0.0001,122.4888 L0.0041,122.4888 L0.0041,126.9948 C0.0041,126.9948 19.1481,128.1228 21.0751,129.7258 C23.0031,131.3298 50.4091,125.4028 52.9711,124.7418 C55.5331,124.0798 109.1291,126.9948 109.1291,126.9948 C109.1291,126.9948 123.1681,130.3748 132.1021,129.8118 C141.0371,129.2488 160.1811,125.8688 175.4981,125.8688 C190.8121,125.8688 209.3191,125.8688 220.1681,128.1228 C231.0161,130.3748 273.1311,122.4888 273.1311,122.4888 L273.1311,116.2908 L273.1311,40.3858 L273.1311,8.1868 L273.1281,8.1868 Z" id="Fill-1" fill="#FEF0E1" mask="url(#mask-2)"></path>
            </g>
            <path d="M198.0402,77.4404 C198.7162,78.9054 199.2072,80.4374 199.3402,82.0504 C199.7952,87.5294 194.5372,94.7614 199.5882,99.3964 C199.5152,98.9834 199.4792,98.5664 199.4632,98.1534 C199.4342,97.2254 199.5472,96.3254 199.6982,95.4154 C200.0882,93.0704 200.6502,90.7544 200.9312,88.3884 C201.0612,87.2634 201.1462,86.1044 201.0462,84.9684 C200.9932,84.3714 200.9192,83.7784 200.7992,83.1924 C200.7342,82.8734 200.7022,82.5434 200.6252,82.2294 C200.5472,81.8994 200.4572,81.5754 200.3582,81.2514 C200.3482,81.2244 200.3902,81.2034 200.4022,81.2344 C200.6112,81.7064 200.8022,82.1904 200.9902,82.6704 C201.1542,83.0834 201.2262,83.5594 201.3112,83.9944 C201.4722,84.8484 201.5712,85.7454 201.5812,86.6154 C201.6052,88.9374 201.1392,91.2164 200.7432,93.4934 C200.5392,94.6814 200.3112,95.8964 200.2502,97.1024 C200.2192,97.7024 200.2282,98.3054 200.3192,98.9004 C200.3412,99.0254 200.3662,99.1454 200.3932,99.2664 C201.2512,97.9844 202.3262,96.8884 202.9642,95.4484 C205.5262,89.6834 203.9112,80.7034 198.0402,77.4404" id="Fill-4" fill="#9BCC65"></path>
            <path d="M247.6572,99.7705 C247.2852,98.8205 247.1542,98.1755 246.4842,97.4305 C245.4882,96.3125 244.4712,95.3575 244.0422,94.4535 C243.6712,93.6495 243.4542,92.5655 243.6132,92.2195 C243.6712,92.1075 243.8292,91.6635 244.2012,91.6325 C243.3802,91.1425 242.9922,90.4675 242.9742,89.5085 C242.9742,88.9265 243.1902,88.2595 243.4082,88.0735 C243.5852,87.9215 243.7522,87.9095 243.9842,87.9095 C243.3962,86.2995 243.1632,85.2605 243.3512,83.5525 C243.5612,81.5875 243.8292,80.2015 244.8402,78.7155 C245.3032,78.0345 245.6522,77.7165 246.3262,77.2535 C246.6762,77.0135 247.6052,76.8535 247.4962,77.7625 C247.3492,79.0605 246.8472,79.7085 246.6462,80.9995 C246.4532,82.2655 246.0642,84.0325 246.4842,84.2695 C246.8292,84.4655 247.4172,84.2075 247.7602,84.5855 C248.0562,84.9035 247.5532,85.8145 247.2852,86.5855 C246.6582,88.4065 246.0862,90.9485 246.3772,91.1315 C246.6762,91.2395 247.0222,91.1315 247.3152,91.1535 C247.7312,91.1925 247.5632,91.8695 247.4962,92.2195 C247.2642,93.4205 247.1082,94.0085 247.1542,95.1665 C247.1882,96.1495 247.2352,96.7215 247.5532,97.6455 C247.7942,98.3425 247.9882,98.7295 248.4002,99.3465 C248.4002,99.3465 248.0052,99.7705 247.6572,99.7705" id="Fill-6" fill="#9BCC65"></path>
            <path d="M213.0495,99.5991 C214.0835,97.7941 214.4825,97.1021 214.6835,95.0411 C214.7635,94.2371 212.8685,92.3691 213.2335,92.1821 C213.6915,91.9521 214.3755,92.6791 214.9865,93.2541 C215.1325,92.3061 215.2095,91.6711 214.8605,90.5901 C214.4895,89.4411 213.4315,88.8791 212.7805,87.6351 C212.4785,87.0461 212.2225,86.6811 212.0975,86.0931 C212.0225,85.7571 212.0065,85.4071 212.3025,85.2421 C212.7745,84.9811 213.4835,86.4141 213.9585,87.2701 C214.3385,87.9531 214.8325,88.7771 215.2835,89.3371 C215.5355,89.4331 215.5915,88.9421 215.6015,88.6401 C215.6525,87.5551 215.8255,87.1161 215.7125,86.6131 C215.4085,85.3151 214.5705,84.2941 213.7705,82.9001 C213.3525,82.1741 212.5185,80.2181 213.1585,80.2181 C213.3465,80.2181 214.0325,81.3921 214.7635,82.5421 C215.2595,83.3351 215.5865,83.8781 216.1635,84.7111 C216.4315,83.9121 216.5115,83.3001 216.5205,82.1451 C216.5205,81.0961 216.5205,80.7551 216.3975,79.8741 C216.2405,78.8081 215.8995,77.1161 216.4525,77.1050359 C217.2335,77.0931 217.9205,78.7671 217.7665,81.5481 C217.6525,83.6101 217.5165,84.4491 217.0125,86.5431 C216.7515,87.6061 216.5045,88.6401 216.4525,89.7571 C217.1715,88.9611 217.9545,88.3421 218.5085,87.1461 C218.8455,86.4241 218.8765,85.8021 219.2755,85.3961 C219.4855,85.1871 220.2505,85.1681 220.1195,85.9831 C219.9665,86.9941 219.7385,87.4251 219.2755,88.2461 C218.5485,89.5131 216.8815,90.4231 216.6645,90.9311 C216.3565,91.6661 216.1725,92.0761 215.9745,92.8431 C215.7285,93.7721 215.7965,94.4311 215.6095,95.2871 C216.2695,94.7501 216.9045,94.0941 217.4245,93.7471 C218.4515,93.0561 220.2805,92.0311 220.3205,92.7511 C220.3415,93.2081 219.1765,93.6691 217.6245,94.9741 C216.8635,95.6061 216.2125,95.9471 215.6315,96.5381 C215.2475,96.9201 214.6105,98.3761 213.9925,99.5771 C213.9925,99.5771 213.3465,99.9121 213.0495,99.5991" id="Fill-8" fill="#9BCC65"></path>
            <path d="M60.2267,99.7417 C60.6807,98.8917 60.9237,98.1297 60.9507,97.4347 C59.4467,96.7297 58.2257,95.7977 57.4557,94.8957 C55.6637,92.7947 54.9357,91.0587 54.9007,88.2977 C56.7277,89.6567 57.6657,90.6407 58.9417,92.5247 C59.9237,93.9797 60.3827,94.8877 60.9637,96.5437 C60.9717,95.4587 60.9297,94.8467 60.7807,93.7767 C60.4317,91.3387 59.3677,90.1777 58.8647,87.7667 C58.5157,86.1067 58.3527,85.1517 58.2787,83.4607 C58.2097,81.9247 58.6307,81.0447 58.4397,79.5277 C58.3127,78.5507 58.1807,78.0027 57.8527,77.0847 C58.7927,78.1547 59.2507,78.8647 59.8467,80.1617 C60.1727,80.8737 60.3147,81.2987 60.5377,82.0507 C61.0737,83.8577 61.0057,84.9697 61.2207,86.8487 C61.5937,90.1487 61.0797,92.8317 61.7497,95.3527 C62.8677,93.8087 62.1697,91.0677 62.6877,89.2007 C63.0847,87.7787 63.5407,87.1217 63.8697,85.7247 C64.1807,84.4097 64.2917,83.6457 64.3667,82.2917 C64.7007,83.9837 64.8307,84.9537 64.9227,86.6777 C65.0227,88.3617 65.1807,89.3477 64.8717,91.0107 C64.6527,92.1997 64.6207,92.7997 63.9297,93.9737 C63.2847,95.0597 62.3357,95.1957 62.0797,96.9897 C62.0277,97.3507 61.9747,97.5457 61.8967,97.8927 C61.7227,98.6337 61.5937,99.0447 61.3367,99.7597 C61.3367,99.7597 60.5227,99.9607 60.2267,99.7417" id="Fill-10" fill="#9BCC65"></path>
            <path d="M46.0185,99.9287 C46.0185,99.9287 44.4935,99.1627 44.1515,97.3007 C43.1015,96.9477 41.1345,96.7917 40.0025,92.5107 C40.3795,92.6397 40.5235,92.6997 40.8045,92.7717 C40.4765,92.1037 40.0225,90.8537 39.9765,88.9907 C40.9225,89.7977 41.5165,89.8487 41.5165,89.8487 C40.4025,87.0107 41.7155,82.5157 41.7155,82.5157 L42.4785,83.1627 C42.7695,82.0077 43.0155,81.3557 43.5685,80.2947 C44.2995,78.8767 44.8535,78.1197 45.9785,76.9997 C45.9785,76.9997 45.3675,81.2827 46.4035,83.6067 C46.5465,83.5377 46.6905,83.4637 47.1755,83.0077 C47.6515,83.5727 48.0485,86.7317 47.4545,88.9497 C47.7775,88.8667 47.9825,88.6797 48.4995,88.4157 C48.5235,89.9957 48.0895,92.1597 47.5665,93.0167 C47.8725,92.9097 48.0975,92.7487 48.6205,92.2987 C48.4595,97.6097 45.3415,96.3417 45.3725,97.4957 C45.3725,97.4957 45.5595,98.4837 46.7445,99.3567 C46.5525,99.8117 46.0185,99.9287 46.0185,99.9287" id="Fill-12" fill="#9BCC65"></path>
            <path d="M230.3713,99.6362 C229.1543,98.3412 229.1203,97.3892 228.9713,95.9792 C226.7033,96.8252 226.1723,93.5592 226.5223,92.0902 C227.1813,89.3162 229.5073,88.4992 230.0003,85.7812 C230.4613,83.2682 228.3093,82.4562 228.6993,80.5252 C228.9993,79.0722 229.3823,78.7592 231.5873,77.2022 C230.6283,79.7212 230.4393,79.5522 232.5463,82.2972 C232.9003,82.7542 233.5063,83.5812 233.1673,84.1702 C234.6303,85.2602 234.2363,86.2022 233.7223,87.2202 C235.2693,87.8312 235.4303,90.1542 234.1113,91.5092 C234.6753,92.5202 234.8183,93.1862 233.6603,94.3462 C234.1903,96.2392 231.9693,98.0352 229.8673,96.1922 C229.8303,97.4882 230.1433,98.3782 231.0553,98.9902 C230.8323,99.5272 230.3713,99.6362 230.3713,99.6362" id="Fill-14" fill="#9BCC65"></path>
            <path d="M28.6208,85.751 C28.4118,86.084 28.2988,86.27 28.0968,86.607 L28.0288,86.217 C28.2088,85.972 28.3218,85.819 28.5068,85.579 C28.3958,85.179 28.1998,84.102 28.9678,83.249 C29.9308,82.182 32.0448,81.869 32.0448,81.869 C32.0448,81.869 31.9518,84.003 30.9898,85.071 C30.1458,86.008 28.9118,85.815 28.6208,85.751" id="Fill-16" fill="#9BCC65"></path>
            <path d="M29.2685,89.4009 C29.0685,89.7699 28.9465,89.9919 28.7405,90.3579 L28.6495,89.9789 C28.8365,89.7089 28.9405,89.5319 29.1245,89.2609 C29.0755,88.9199 28.9735,87.7309 29.9205,86.9539 C31.0335,86.0399 33.1715,86.0478988 33.1715,86.0478988 C33.1715,86.0478988 32.7575,88.1449 31.6475,89.0589 C30.7345,89.8059 29.6355,89.5259 29.2685,89.4009" id="Fill-18" fill="#9BCC65"></path>
            <path d="M29.7775,93.6353 C29.6175,93.8783 29.4845,94.0723 29.3155,94.3093 L29.2745,93.9183 C29.4215,93.7503 29.5015,93.6383 29.6455,93.4683 C29.5935,93.0953 29.5255,91.9483 30.4435,91.1923 C31.5565,90.2823 33.6945,90.2882995 33.6945,90.2882995 C33.6945,90.2882995 33.2815,92.3853 32.1695,93.2963 C31.2435,94.0543 30.1285,93.7573 29.7775,93.6353" id="Fill-20" fill="#9BCC65"></path>
            <path d="M28.5138,94.6548 C28.2008,94.3418 27.8858,94.0278 27.5708,93.7218 C27.2068,93.8368 26.0958,94.0988 25.1958,93.3268 C24.1048,92.3908 23.7388,90.2858 23.7388,90.2858 C23.7388,90.2858 25.8758,90.3238 26.9668,91.2618 C27.9118,92.0698 27.7658,93.2848 27.7088,93.5998 C27.9708,93.8168 28.2338,94.0358 28.4958,94.2508 C28.4358,93.1938 28.2908,92.1048 28.1338,91.0018 C27.7518,90.5308 27.3698,90.0588 26.9928,89.5838 C26.8998,89.6048 25.4838,89.8828 24.5978,88.8158 C23.6808,87.7038 23.6798,85.5688 23.6798,85.5688 C23.6798,85.5688 25.7768,85.9708 26.6948,87.0818 C27.4248,87.9618 27.1868,89.0228 27.0578,89.4238 C27.3898,89.7868 27.7248,90.1468 28.0618,90.5078 C27.8988,89.3868 27.7308,88.2538 27.6278,87.1258 C27.2428,86.6398 26.8698,86.1478 26.5138,85.6428 C26.1698,85.6148 24.9918,85.4428 24.4498,84.3518 C23.8098,83.0638 24.2938,80.9828 24.2938,80.9828 C24.2938,80.9828 26.2448,81.8528 26.8858,83.1398 C27.4258,84.2258 26.8608,85.2638 26.6708,85.5628 C26.9668,85.9278 27.2738,86.2858 27.5878,86.6358 C27.4688,85.0308 27.5048,83.4308 27.8978,81.8838 C27.7458,81.6348 27.1538,80.5298 27.7658,79.4218 C28.4618,78.1618 30.4508,77.3798 30.4508,77.3798 C30.4508,77.3798 30.8428,79.4778 30.1458,80.7358 C29.5768,81.7708 28.4498,81.9178 28.0638,81.9348 C27.7158,83.4298 27.7118,84.9318 27.8578,86.4338 L27.9118,86.9118 C28.0438,88.0218 28.2508,89.1288 28.4588,90.2298 L28.5468,90.7028 C28.7628,91.8578 28.9678,93.0068 29.0718,94.1388 L29.1078,94.5958 C29.2138,96.1818 29.0998,97.7368 28.5258,99.2448 L27.6368,99.5478 C28.3848,98.0448 28.5768,96.3928 28.5138,94.6548" id="Fill-22" fill="#9BCC65"></path>
            <path d="M71.3342,99.3965 C73.6112,96.0105 73.6772,94.6695 73.6772,94.6695 C72.2202,93.0785 71.5292,91.9155 71.4302,89.8975 C71.3342,87.9355 72.0832,86.8595 72.4952,84.9165 C72.8232,83.3625 73.2642,82.4715 73.3332,80.9205 C73.3982,79.5075 73.3332,78.7025 72.4582,77.3625 C74.2772,78.4875 75.0342,80.0885 75.7802,81.8465 C76.5742,83.7085 76.8812,84.7705 77.0712,86.6995 C77.3022,89.0765 77.3572,90.7845 76.4462,92.7875 C75.4522,94.9795 74.7092,94.7955 74.5552,95.2355 C73.8372,97.2505 73.5582,97.7875 72.4662,99.3915 C71.7922,99.7815 71.3342,99.3965 71.3342,99.3965" id="Fill-24" fill="#9BCC65"></path>
            <polygon id="Fill-26" fill="#007F60" points="23.4067 70.9219 23.4067 34.9799 44.1417 34.9799 44.1417 38.2059 27.2467 38.2059 27.2467 50.8519 40.7117 50.8519 40.7117 54.0779 27.2467 54.0779 27.2467 70.9219"></polygon>
            <path d="M53.4103,53.668 C62.6263,54.948 67.7463,51.108 67.7463,45.476 C67.7463,40.151 63.1383,36.721 53.4103,38.308 L53.4103,53.668 Z M64.0083,56.023 L74.6573,70.922 L69.8453,70.922 L60.1173,57.047 C58.0693,57.303 55.8163,57.457 53.4103,57.098 L53.4103,70.922 L49.5703,70.922 L49.5703,35.185 C64.7253,32.625 71.6883,37.336 71.6883,45.527 C71.6883,50.493 68.5653,54.333 64.0083,56.023 L64.0083,56.023 Z" id="Fill-28" fill="#007F60"></path>
            <path d="M95.0373,68.2598 C102.9733,68.2598 109.5773,61.9618 109.5773,53.0018 C109.5773,44.0428 102.9733,37.6428 95.0373,37.6428 C87.0503,37.6428 80.5483,44.0428 80.5483,53.0018 C80.5483,61.9618 87.0503,68.2598 95.0373,68.2598 M95.0373,34.2638 C105.6873,34.2638 113.7253,42.4048 113.7253,53.0018 C113.7253,63.4978 105.6873,71.6388 95.0373,71.6388 C84.2853,71.6388 76.4013,63.4978 76.4013,53.0018 C76.4013,42.4048 84.2853,34.2638 95.0373,34.2638" id="Fill-30" fill="#007F60"></path>
            <polygon id="Fill-32" fill="#007F60" points="147.9806 34.98 147.9806 71.024 147.0596 71.382 123.2526 43.377 123.2526 70.922 119.5146 70.922 119.5146 34.878 120.3336 34.468 144.1926 62.628 144.1926 34.98"></polygon>
            <polygon id="Fill-34" fill="#007F60" points="178.9086 38.2061 167.6956 38.2061 167.6956 70.9221 163.8556 70.9221 163.8556 38.2061 152.6946 38.2061 152.6946 34.9801 178.9086 34.9801"></polygon>
            <mask id="mask-4" fill="white">
                <use xlink:href="#path-3"></use>
            </mask>
            <g id="Clip-37"></g>
            <polygon id="Fill-36" fill="#007F60" mask="url(#mask-4)" points="184.184 70.922 188.024 70.922 188.024 34.98 184.184 34.98"></polygon>
            <polygon id="Fill-38" fill="#007F60" mask="url(#mask-4)" points="218.3862 67.6963 218.3862 70.9213 196.7292 70.9213 196.7292 34.9803 217.6182 34.9803 217.6182 38.2063 200.5692 38.2063 200.5692 50.8513 214.6492 50.8513 214.6492 54.0773 200.5692 54.0773 200.5692 67.6963"></polygon>
            <path d="M228.5771,53.668 C237.7931,54.948 242.9131,51.108 242.9131,45.476 C242.9131,40.151 238.3051,36.721 228.5771,38.308 L228.5771,53.668 Z M239.1751,56.023 L249.8251,70.922 L245.0131,70.922 L235.2841,57.047 C233.2361,57.303 230.9831,57.457 228.5771,57.098 L228.5771,70.922 L224.7371,70.922 L224.7371,35.185 C239.8921,32.625 246.8561,37.336 246.8561,45.527 C246.8561,50.493 243.7321,54.333 239.1751,56.023 L239.1751,56.023 Z" id="Fill-39" fill="#007F60" mask="url(#mask-4)"></path>
            <path d="M106.1603,97.2183 C104.5343,98.8103 101.8923,100.8763 96.7793,100.8763 C89.7683,100.8763 84.4173,95.4913 84.4173,88.4813 C84.4173,81.0303 90.3443,76.1533 96.9483,76.1533 C101.6553,76.1533 104.3993,78.2193 105.9913,79.6413 L103.8573,82.1813 C102.5023,80.9283 100.0973,79.3023 97.0153,79.3023 C92.1053,79.3023 88.2783,83.3333 88.2783,88.4813 C88.2783,93.4593 91.8343,97.6923 97.0503,97.6923 C99.8603,97.6923 102.5703,96.2703 103.9933,94.8813 L106.1603,97.2183 Z" id="Fill-40" fill="#007F60" mask="url(#mask-4)"></path>
            <path d="M119.7729,97.6929 C124.4119,97.6929 128.4429,94.0359 128.4429,88.5489 C128.4429,83.0619 124.4119,79.3029 119.7729,79.3029 C115.0989,79.3029 111.1369,83.0619 111.1369,88.5489 C111.1369,94.0359 115.0989,97.6929 119.7729,97.6929 M119.7729,76.1539 C126.9859,76.1539 132.2689,81.6399 132.2689,88.5489 C132.2689,95.4239 126.9859,100.8769 119.7729,100.8769 C112.5589,100.8769 107.3099,95.4239 107.3099,88.5489 C107.3099,81.6399 112.5589,76.1539 119.7729,76.1539" id="Fill-41" fill="#007F60" mask="url(#mask-4)"></path>
            <polygon id="Fill-42" fill="#007F60" mask="url(#mask-4)" points="134.5697 90.2515 134.5697 87.1355 143.5447 85.8155 143.5447 88.9305"></polygon>
            <path d="M158.2751,97.6929 C162.9151,97.6929 166.9451,94.0359 166.9451,88.5489 C166.9451,83.0619 162.9151,79.3029 158.2751,79.3029 C153.6011,79.3029 149.6391,83.0619 149.6391,88.5489 C149.6391,94.0359 153.6011,97.6929 158.2751,97.6929 M158.2751,76.1539 C165.4881,76.1539 170.7721,81.6399 170.7721,88.5489 C170.7721,95.4239 165.4881,100.8769 158.2751,100.8769 C151.0621,100.8769 145.8121,95.4239 145.8121,88.5489 C145.8121,81.6399 151.0621,76.1539 158.2751,76.1539" id="Fill-43" fill="#007F60" mask="url(#mask-4)"></path>
            <path d="M177.9836,89.3955 C183.7406,89.8015 186.2816,87.7365 186.2816,84.3155 C186.2816,81.1995 184.0116,78.9305 177.9836,79.7095 L177.9836,89.3955 Z M177.9836,92.5445 L177.9836,100.4025 L174.4276,100.4025 L174.4276,76.7975 C185.1296,74.9005 189.9386,78.6255 189.9386,84.3495 C189.9386,89.7675 185.7046,93.0195 177.9836,92.5445 L177.9836,92.5445 Z" id="Fill-44" fill="#007F60" mask="url(#mask-4)"></path>
            <path d="M254.6676,40.0557 L255.5226,40.0557 C256.2456,40.0557 256.9086,40.0197 256.9086,39.1877 C256.9086,38.4897 256.3066,38.3807 255.7516,38.3807 L254.6676,38.3807 L254.6676,40.0557 Z M253.8486,37.7177 L255.8836,37.7177 C257.1376,37.7177 257.7276,38.2117 257.7276,39.2247 C257.7276,40.1757 257.1256,40.5737 256.3416,40.6577 L257.8486,42.9837 L256.9686,42.9837 L255.5346,40.7187 L254.6676,40.7187 L254.6676,42.9837 L253.8486,42.9837 L253.8486,37.7177 Z M255.6066,44.2007 C257.6916,44.2007 259.3066,42.5377 259.3066,40.3327 C259.3066,38.1757 257.6916,36.5137 255.6066,36.5137 C253.4986,36.5137 251.8836,38.1757 251.8836,40.3327 C251.8836,42.5377 253.4986,44.2007 255.6066,44.2007 L255.6066,44.2007 Z M255.6066,35.8507 C258.0646,35.8507 260.1256,37.7907 260.1256,40.3327 C260.1256,42.9237 258.0646,44.8637 255.6066,44.8637 C253.1366,44.8637 251.0646,42.9237 251.0646,40.3327 C251.0646,37.7907 253.1366,35.8507 255.6066,35.8507 L255.6066,35.8507 Z" id="Fill-45" fill="#007F60" mask="url(#mask-4)"></path>
        </g>
    </g>
</svg>