<?xml version="1.0" encoding="UTF-8"?>
<svg width="374px" height="105px" viewBox="0 0 374 105" version="1.1" xmlns="http://www.w3.org/2000/svg" xmlns:xlink="http://www.w3.org/1999/xlink">
    <title>Logo-Aura Cacia</title>
    <defs>
        <polygon id="path-1" points="0.149 0.339 139.031 0.339 139.031 66 0.149 66"></polygon>
        <polygon id="path-3" points="0.06 0.142 38.389 0.142 38.389 30.154 0.06 30.154"></polygon>
        <polygon id="path-5" points="0.06 0.463 348.339 0.463 348.339 65.296 0.06 65.296"></polygon>
    </defs>
    <g id="Symbols" stroke="none" stroke-width="1" fill="none" fill-rule="evenodd">
        <g id="logo/aura-cacia">
            <g id="Logo-Aura-Cacia">
                <path d="M360.641,86.09 L356.892,84.362 C361.517,76.693 361.355,64.745 358.421,56.818 C356.219,50.871 351.237,47.249 344.765,44.263 C338.294,41.278 334.346,40.828 327.255,43.714 C321.967,45.867 316.769,47.701 313.413,53.093 L309.966,51.131 C313.395,44.547 317.721,43.381 323.879,40.874 C325.383,40.262 326.758,39.752 328.055,39.339 L305.523,39.339 C302.138,39.339 299.396,41.274 299.396,43.659 L299.396,100.278 C299.396,102.664 302.138,104.598 305.523,104.598 L356.907,104.598 C360.288,104.598 363.031,102.664 363.031,100.278 L363.031,81.87 C362.41,83.41 361.635,84.84 360.641,86.09" id="Fill-1" fill="#C8B180"></path>
                <path d="M351.58,42.037 C357.094,45.345 360.721,48.749 362.622,55.306 C362.763,55.793 362.898,56.299 363.031,56.809 L363.031,43.659 C363.031,41.274 360.288,39.339 356.907,39.339 L344.57,39.339 C344.68,39.368 344.785,39.392 344.897,39.422 C346.492,39.843 348.675,40.293 351.58,42.037" id="Fill-2" fill="#C8B180"></path>
                <g id="Group-7" transform="translate(224.000000, 39.000000)">
                    <mask id="mask-2" fill="white">
                        <use xlink:href="#path-1"></use>
                    </mask>
                    <g id="Clip-4"></g>
                    <path d="M85.966,12.131 L89.413,14.093 C92.769,8.701 97.967,6.867 103.255,4.714 C110.346,1.828 114.294,2.278 120.765,5.263 C127.237,8.249 132.219,11.871 134.421,17.818 C137.355,25.745 137.517,37.693 132.892,45.362 L136.641,47.09 C137.635,45.84 138.41,44.41 139.031,42.87 L139.031,17.809 C138.898,17.299 138.763,16.793 138.622,16.306 C136.721,9.749 133.094,6.345 127.58,3.037 C124.675,1.293 122.492,0.843 120.897,0.422 C120.785,0.392 120.68,0.368 120.57,0.339 L104.055,0.339 C102.758,0.752 101.383,1.262 99.879,1.874 C93.721,4.381 89.395,5.547 85.966,12.131" id="Fill-3" fill="#FFFFFE" mask="url(#mask-2)"></path>
                    <path d="M57.656,0.741 L6.273,0.741 C2.893,0.741 0.149,2.676 0.149,5.061 L0.149,61.68 C0.149,63.507 1.762,65.067 4.034,65.698 L10.284,52.107 C11.074,51.16 12.306,52.761 12.306,52.761 C12.76,53.407 11.902,54.459 11.902,54.459 C9.975,58.313 8.363,62.397 7.093,66.001 L57.656,66.001 C61.041,66.001 63.784,64.066 63.784,61.68 L63.784,5.061 C63.784,2.676 61.041,0.741 57.656,0.741" id="Fill-5" fill="#989D63" mask="url(#mask-2)"></path>
                    <path d="M12.306,52.761 C12.306,52.761 11.074,51.16 10.284,52.107 L4.034,65.698 C4.728,65.891 5.482,66.001 6.273,66.001 L7.093,66.001 C8.363,62.397 9.975,58.313 11.902,54.459 C11.902,54.459 12.76,53.407 12.306,52.761" id="Fill-6" fill="#FFFFFE" mask="url(#mask-2)"></path>
                </g>
                <path d="M150.667,89.724 C150.16,87.978 149.704,86.081 149.334,84.102 L149.334,100.28 C149.334,102.665 152.076,104.598 155.457,104.598 L165.007,104.598 C164.027,104.228 162.936,103.73 161.708,102.994 C156.194,99.685 152.567,96.282 150.667,89.724" id="Fill-8" fill="#F9D35A"></path>
                <path d="M206.84,39.764 L155.457,39.764 C152.076,39.764 149.334,41.697 149.334,44.082 L149.334,65.973 C150.011,63.333 151.074,60.921 152.647,58.94 L156.396,60.668 C151.771,68.337 151.933,80.285 154.868,88.212 C157.07,94.16 162.051,97.781 168.523,100.767 C174.994,103.753 178.943,104.202 186.034,101.316 C191.322,99.164 196.519,97.329 199.876,91.937 L203.323,93.899 C199.893,100.483 195.568,101.65 189.41,104.156 C189.026,104.312 188.659,104.455 188.292,104.598 L206.84,104.598 C210.223,104.598 212.967,102.665 212.967,100.28 L212.967,44.082 C212.967,41.697 210.223,39.764 206.84,39.764" id="Fill-9" fill="#F9D35A"></path>
                <path d="M203.323,93.899 L199.876,91.937 C196.519,97.329 191.322,99.164 186.034,101.316 C178.943,104.202 174.994,103.753 168.523,100.767 C162.051,97.781 157.07,94.16 154.868,88.212 C151.933,80.285 151.771,68.337 156.396,60.668 L152.647,58.94 C151.074,60.921 150.011,63.333 149.334,65.973 L149.334,84.102 C149.704,86.081 150.16,87.978 150.667,89.724 C152.567,96.282 156.194,99.685 161.708,102.994 C162.936,103.73 164.027,104.228 165.007,104.598 L188.292,104.598 C188.659,104.455 189.026,104.312 189.41,104.156 C195.568,101.65 199.893,100.483 203.323,93.899" id="Fill-10" fill="#FFFFFE"></path>
                <path d="M132.186,39.764 L80.799,39.764 C77.419,39.764 74.676,41.709 74.676,44.108 L74.676,100.254 C74.676,102.654 77.419,104.598 80.799,104.598 L95.718,104.598 C95.292,103.442 94.784,102.153 94.275,101.096 C93.038,98.526 89.372,93.414 90.188,89.247 C91.005,85.08 94.351,83.569 94.351,83.569 L105.317,83.882 C105.317,83.882 111.013,89.553 105.398,97.889 C102.234,102.587 102.216,101.665 99.433,104.598 L132.186,104.598 C135.566,104.598 138.309,102.654 138.309,100.254 L138.309,44.108 C138.309,41.709 135.566,39.764 132.186,39.764" id="Fill-11" fill="#8770A5"></path>
                <path d="M105.398,97.889 C111.013,89.553 105.317,83.882 105.317,83.882 L94.351,83.569 C94.351,83.569 91.005,85.08 90.188,89.247 C89.372,93.414 93.038,98.526 94.275,101.096 C94.784,102.153 95.292,103.442 95.718,104.598 L99.433,104.598 C102.216,101.665 102.234,102.587 105.398,97.889" id="Fill-12" fill="#FFFFFE"></path>
                <path d="M18.905,50.775 C16.726,49.927 13.285,49.576 10.489,50.257 C12.163,53.469 16.101,51.903 18.905,50.775" id="Fill-13" fill="#A0A193"></path>
                <path d="M106.252,76.582 C106.29,76.585 106.33,76.584 106.372,76.585 C106.364,76.558 106.344,76.534 106.337,76.504 C106.307,76.532 106.279,76.554 106.252,76.582" id="Fill-14" fill="#7475A9"></path>
                <path d="M344.652,66.704 C344.652,70.203 341.817,73.04 338.318,73.04 C334.82,73.04 331.983,70.203 331.983,66.704 C331.983,63.206 334.82,60.369 338.318,60.369 C341.817,60.369 344.652,63.206 344.652,66.704 Z M345.564,66.904 C345.564,62.79 342.23,59.458 338.122,59.458 C334.008,59.458 330.679,62.79 330.679,66.904 C330.679,71.011 334.008,74.345 338.122,74.345 C342.23,74.345 345.564,71.011 345.564,66.904 L345.564,66.904 Z" id="Fill-15" fill="#C8B180"></path>
                <path d="M354.193,69.929 C354.193,80.525 345.602,89.116 335.01,89.116 C324.411,89.116 315.824,80.525 315.824,69.929 C315.824,59.335 324.257,51.318 334.855,51.318 C345.447,51.318 354.193,59.335 354.193,69.929 Z M356.192,75.075 L356.829,68.285 C355.482,54.577 344.755,48.878 334.742,48.878 C322.964,48.878 313.417,58.423 313.417,70.199 C313.417,81.974 322.964,91.519 334.742,91.519 C344.755,91.519 355.205,84.971 356.192,75.075 L356.192,75.075 Z" id="Fill-16" fill="#FFFFFE"></path>
                <path d="M340.443,71.46 C340.443,67.576 337.285,64.416 333.402,64.416 C329.514,64.416 326.351,67.576 326.351,71.46 C326.351,75.343 329.514,78.503 333.402,78.503 C337.285,78.503 340.443,75.343 340.443,71.46 Z M343.18,71.572 C343.18,77.028 338.741,81.467 333.286,81.467 C327.829,81.467 323.389,77.028 323.389,71.572 C323.389,66.116 327.829,61.677 333.286,61.677 C338.741,61.677 343.18,66.116 343.18,71.572 L343.18,71.572 Z" id="Fill-17" fill="#FFFFFE"></path>
                <path d="M366.553,4.987 L366.553,3.095 L367.845,3.095 C368.502,3.095 369.201,3.233 369.201,3.988 C369.201,4.933 368.485,4.987 367.688,4.987 L366.553,4.987 Z M366.553,5.774 L367.639,5.774 L369.29,8.426 L370.349,8.426 L368.574,5.732 C369.492,5.618 370.192,5.145 370.192,4.049 C370.192,2.839 369.46,2.306 367.986,2.306 L365.609,2.306 L365.609,8.426 L366.553,8.426 L366.553,5.774 Z M367.7,10.673 C370.651,10.673 373.168,8.426 373.168,5.35 C373.168,2.306 370.651,0.061 367.7,0.061 C364.72,0.061 362.199,2.306 362.199,5.35 C362.199,8.426 364.72,10.673 367.7,10.673 Z M363.286,5.35 C363.286,2.839 365.222,0.944 367.7,0.944 C370.152,0.944 372.085,2.839 372.085,5.35 C372.085,7.907 370.152,9.789 367.7,9.789 C365.222,9.789 363.286,7.907 363.286,5.35 L363.286,5.35 Z" id="Fill-18" fill="#8770A5"></path>
                <g id="Group-22" transform="translate(0.000000, 1.000000)">
                    <mask id="mask-4" fill="white">
                        <use xlink:href="#path-3"></use>
                    </mask>
                    <g id="Clip-20"></g>
                    <path d="M26.641,18.839 L19.239,4.763 L11.748,18.839 L26.641,18.839 Z M37.594,29.675 L32.327,29.675 L28.98,23.175 L9.409,23.175 L6.061,29.675 L0.795,29.675 L16.165,0.621 L22.224,0.621 L37.594,29.675 L37.594,29.675 Z" id="Fill-19" fill="#8770A5" mask="url(#mask-4)"></path>
                    <path d="M12.545,18.36 L25.848,18.36 L19.237,5.786 L12.545,18.36 Z M27.432,19.318 L10.952,19.318 L19.242,3.74 L27.432,19.318 Z M32.618,29.197 L36.801,29.197 L21.936,1.099 L16.453,1.099 L1.589,29.197 L5.769,29.197 L9.118,22.696 L29.272,22.696 L32.618,29.197 Z M38.389,30.154 L32.035,30.154 L28.688,23.653 L9.701,23.653 L6.352,30.154 L0,30.154 L15.876,0.142 L22.513,0.142 L38.389,30.154 L38.389,30.154 Z" id="Fill-21" fill="#8770A5" mask="url(#mask-4)"></path>
                </g>
                <path d="M77.766,21.283 C77.766,24.309 76.293,26.756 73.351,28.626 C70.354,30.58 66.355,31.557 61.352,31.557 C56.349,31.557 52.323,30.58 49.272,28.626 C46.33,26.73 44.859,24.282 44.859,21.283 L44.859,1.621 L49.674,1.621 L49.674,20.119 C49.674,22.394 50.67,24.133 52.664,25.336 C54.656,26.542 57.552,27.144 61.352,27.144 C65.15,27.144 68.034,26.542 70,25.336 C71.967,24.133 72.949,22.394 72.949,20.119 L72.949,1.621 L77.766,1.621 L77.766,21.283" id="Fill-23" fill="#8770A5"></path>
                <path d="M45.338,2.099 L45.338,21.283 C45.338,24.134 46.71,26.405 49.532,28.224 C52.489,30.118 56.466,31.078 61.352,31.078 C66.237,31.078 70.185,30.119 73.09,28.226 C75.916,26.43 77.287,24.16 77.287,21.283 L77.287,2.099 L73.428,2.099 L73.428,20.119 C73.428,22.562 72.358,24.454 70.249,25.745 C68.219,26.99 65.226,27.622 61.352,27.622 C57.48,27.622 54.473,26.991 52.416,25.746 C50.28,24.456 49.196,22.563 49.196,20.119 L49.196,2.099 L45.338,2.099 Z M61.352,32.035 C56.28,32.035 52.129,31.024 49.014,29.029 C45.939,27.047 44.381,24.441 44.381,21.283 L44.381,1.142 L50.153,1.142 L50.153,20.119 C50.153,22.233 51.055,23.806 52.911,24.926 C54.817,26.08 57.657,26.665 61.352,26.665 C65.046,26.665 67.871,26.081 69.749,24.928 C71.58,23.808 72.47,22.235 72.47,20.119 L72.47,1.142 L78.244,1.142 L78.244,21.283 C78.244,24.468 76.685,27.075 73.608,29.03 C70.55,31.023 66.425,32.035 61.352,32.035 L61.352,32.035 Z" id="Fill-24" fill="#8770A5"></path>
                <path d="M111.473,15.265 C115.191,15.265 117.053,13.767 117.053,10.772 C117.053,7.562 115.045,5.953 111.033,5.953 L94.098,5.953 L94.098,15.265 L111.473,15.265 Z M122.228,30.675 L116.627,30.675 L108.763,19.598 L94.098,19.598 L94.098,30.675 L89.281,30.675 L89.281,1.621 L112.196,1.621 C115.246,1.621 117.64,2.442 119.38,4.089 C121.119,5.733 121.988,7.961 121.988,10.769 C121.988,13.231 121.278,15.212 119.861,16.71 C118.55,18.1 116.744,18.984 114.444,19.357 L122.228,30.675 L122.228,30.675 Z" id="Fill-25" fill="#8770A5"></path>
                <path d="M94.576,14.787 L111.474,14.787 C114.906,14.787 116.574,13.473 116.574,10.772 C116.574,7.852 114.762,6.432 111.033,6.432 L94.576,6.432 L94.576,14.787 Z M111.474,15.744 L93.619,15.744 L93.619,5.475 L111.033,5.475 C116.403,5.475 117.531,8.355 117.531,10.772 C117.531,13.04 116.48,15.744 111.474,15.744 Z M116.874,30.197 L121.318,30.197 L113.622,19.006 L114.367,18.884 C116.549,18.531 118.28,17.689 119.513,16.381 C120.838,14.98 121.51,13.092 121.51,10.769 C121.51,8.109 120.682,5.979 119.051,4.437 C117.412,2.885 115.106,2.099 112.196,2.099 L89.76,2.099 L89.76,30.197 L93.619,30.197 L93.619,19.119 L109.011,19.119 L116.874,30.197 Z M123.138,31.154 L116.379,31.154 L108.516,20.076 L94.576,20.076 L94.576,31.154 L88.803,31.154 L88.803,1.142 L112.196,1.142 C115.359,1.142 117.887,2.017 119.709,3.742 C121.539,5.471 122.467,7.836 122.467,10.769 C122.467,13.345 121.707,15.454 120.208,17.038 C118.972,18.349 117.308,19.24 115.254,19.69 L123.138,31.154 L123.138,31.154 Z" id="Fill-26" fill="#8770A5"></path>
                <path d="M153.331,19.839 L145.93,5.763 L138.439,19.839 L153.331,19.839 Z M164.285,30.675 L159.018,30.675 L155.671,24.175 L136.1,24.175 L132.752,30.675 L127.485,30.675 L142.855,1.621 L148.915,1.621 L164.285,30.675 L164.285,30.675 Z" id="Fill-27" fill="#8770A5"></path>
                <path d="M139.236,19.36 L152.539,19.36 L145.928,6.786 L139.236,19.36 Z M154.123,20.318 L137.643,20.318 L145.932,4.74 L154.123,20.318 Z M159.309,30.197 L163.491,30.197 L148.627,2.099 L143.144,2.099 L128.28,30.197 L132.46,30.197 L135.809,23.696 L155.963,23.696 L159.309,30.197 Z M165.08,31.154 L158.726,31.154 L155.379,24.653 L136.392,24.653 L133.043,31.154 L126.691,31.154 L142.567,1.142 L149.204,1.142 L165.08,31.154 L165.08,31.154 Z" id="Fill-28" fill="#8770A5"></path>
                <path d="M219.705,8.24 L215.33,9.807 C212.388,6.677 208.266,5.11 202.97,5.11 C198.958,5.11 195.685,6.141 193.159,8.202 C190.631,10.262 189.366,12.883 189.366,16.066 C189.366,19.357 190.617,22.013 193.119,24.032 C195.62,26.054 198.997,27.063 203.252,27.063 C208.388,27.063 212.427,25.47 215.369,22.287 L219.505,24.574 C217.418,27.01 215.056,28.77 212.421,29.851 C209.786,30.935 206.635,31.477 202.97,31.477 C197.833,31.477 193.566,30.193 190.169,27.626 C186.29,24.681 184.35,20.831 184.35,16.066 C184.35,11.385 186.317,7.559 190.25,4.589 C193.674,1.996 197.913,0.697 202.97,0.697 C210.247,0.697 215.825,3.211 219.705,8.24" id="Fill-29" fill="#8770A5"></path>
                <path d="M202.97,1.176 C198.046,1.176 193.863,2.453 190.538,4.971 C186.75,7.832 184.829,11.564 184.829,16.066 C184.829,20.647 186.723,24.409 190.458,27.245 C193.755,29.735 197.965,30.998 202.97,30.998 C206.555,30.998 209.674,30.463 212.239,29.408 C214.63,28.428 216.818,26.847 218.753,24.705 L215.461,22.885 C212.46,25.975 208.353,27.542 203.252,27.542 C198.904,27.542 195.393,26.486 192.817,24.403 C190.21,22.299 188.888,19.494 188.888,16.066 C188.888,12.748 190.222,9.977 192.856,7.831 C195.459,5.708 198.861,4.632 202.97,4.632 C208.252,4.632 212.451,6.186 215.461,9.252 L218.913,8.016 C215.162,3.476 209.802,1.176 202.97,1.176 Z M202.97,31.955 C197.752,31.955 193.347,30.627 189.881,28.008 C185.893,24.98 183.872,20.963 183.872,16.066 C183.872,11.248 185.921,7.258 189.961,4.208 C193.456,1.561 197.833,0.219 202.97,0.219 C210.369,0.219 216.128,2.819 220.083,7.948 L220.485,8.469 L215.196,10.362 L214.981,10.134 C212.146,7.118 208.105,5.589 202.97,5.589 C199.088,5.589 195.888,6.593 193.461,8.572 C191.027,10.556 189.845,13.007 189.845,16.066 C189.845,19.234 191.013,21.718 193.419,23.659 C195.82,25.601 199.129,26.585 203.252,26.585 C208.224,26.585 212.182,25.03 215.017,21.962 L215.271,21.687 L220.251,24.439 L219.868,24.885 C217.739,27.369 215.296,29.189 212.602,30.293 C209.923,31.396 206.68,31.955 202.97,31.955 L202.97,31.955 Z" id="Fill-30" fill="#8770A5"></path>
                <path d="M251.371,19.839 L243.969,5.763 L236.475,19.839 L251.371,19.839 Z M262.323,30.675 L257.055,30.675 L253.709,24.175 L234.138,24.175 L230.788,30.675 L225.523,30.675 L240.895,1.621 L246.955,1.621 L262.323,30.675 L262.323,30.675 Z" id="Fill-31" fill="#8770A5"></path>
                <path d="M237.272,19.36 L250.578,19.36 L243.966,6.786 L237.272,19.36 Z M252.163,20.318 L235.679,20.318 L243.971,4.74 L252.163,20.318 Z M257.347,30.197 L261.529,30.197 L246.667,2.099 L241.182,2.099 L226.317,30.197 L230.497,30.197 L233.846,23.696 L254.001,23.696 L257.347,30.197 Z M263.117,31.154 L256.764,31.154 L253.417,24.653 L234.43,24.653 L231.08,31.154 L224.728,31.154 L240.607,1.142 L247.243,1.142 L247.379,1.397 L263.117,31.154 L263.117,31.154 Z" id="Fill-32" fill="#8770A5"></path>
                <path d="M303.698,8.24 L299.323,9.807 C296.381,6.677 292.26,5.11 286.966,5.11 C282.951,5.11 279.681,6.141 277.153,8.202 C274.625,10.262 273.359,12.883 273.359,16.066 C273.359,19.357 274.61,22.013 277.111,24.032 C279.613,26.054 282.99,27.063 287.245,27.063 C292.382,27.063 296.42,25.47 299.365,22.287 L303.498,24.574 C301.411,27.01 299.05,28.77 296.414,29.851 C293.778,30.935 290.628,31.477 286.966,31.477 C281.828,31.477 277.558,30.193 274.164,27.626 C270.283,24.681 268.342,20.831 268.342,16.066 C268.342,11.385 270.31,7.559 274.244,4.589 C277.666,1.996 281.909,0.697 286.966,0.697 C294.24,0.697 299.817,3.211 303.698,8.24" id="Fill-33" fill="#8770A5"></path>
                <path d="M286.966,1.176 C282.038,1.176 277.854,2.453 274.532,4.971 C270.742,7.833 268.82,11.566 268.82,16.066 C268.82,20.647 270.715,24.408 274.453,27.245 C277.746,29.735 281.956,30.998 286.966,30.998 C290.549,30.998 293.668,30.463 296.232,29.408 C298.622,28.428 300.811,26.847 302.746,24.705 L299.458,22.885 C296.452,25.976 292.346,27.542 287.245,27.542 C282.896,27.542 279.386,26.486 276.81,24.403 C274.204,22.299 272.882,19.494 272.882,16.066 C272.882,12.749 274.217,9.978 276.851,7.831 C279.456,5.708 282.858,4.632 286.966,4.632 C292.245,4.632 296.444,6.186 299.454,9.252 L302.906,8.016 C299.155,3.476 293.796,1.176 286.966,1.176 Z M286.966,31.955 C281.743,31.955 277.339,30.627 273.875,28.008 C269.886,24.98 267.863,20.963 267.863,16.066 C267.863,11.249 269.912,7.259 273.956,4.208 C277.446,1.561 281.824,0.219 286.966,0.219 C294.363,0.219 300.12,2.819 304.076,7.948 L304.478,8.469 L299.189,10.362 L298.974,10.134 C296.139,7.118 292.099,5.589 286.966,5.589 C283.084,5.589 279.885,6.593 277.455,8.572 C275.021,10.557 273.838,13.008 273.838,16.066 C273.838,19.234 275.008,21.718 277.413,23.659 C279.812,25.601 283.121,26.585 287.245,26.585 C292.217,26.585 296.176,25.029 299.013,21.962 L299.269,21.687 L304.244,24.439 L303.862,24.885 C301.732,27.369 299.288,29.189 296.596,30.293 C293.915,31.396 290.675,31.955 286.966,31.955 L286.966,31.955 Z" id="Fill-34" fill="#8770A5"></path>
                <polygon id="Fill-35" fill="#8770A5" points="313.771 30.676 318.587 30.676 318.587 1.621 313.771 1.621"></polygon>
                <path d="M314.25,30.197 L318.109,30.197 L318.109,2.099 L314.25,2.099 L314.25,30.197 Z M313.293,31.154 L319.065,31.154 L319.065,1.142 L313.293,1.142 L313.293,31.154 Z" id="Fill-36" fill="#8770A5"></path>
                <path d="M351.897,19.839 L344.494,5.763 L337.002,19.839 L351.897,19.839 Z M362.849,30.675 L357.582,30.675 L354.234,24.175 L334.664,24.175 L331.317,30.675 L326.05,30.675 L341.421,1.621 L347.481,1.621 L362.849,30.675 L362.849,30.675 Z" id="Fill-37" fill="#8770A5"></path>
                <path d="M337.799,19.36 L351.104,19.36 L344.491,6.786 L337.799,19.36 Z M352.689,20.318 L336.205,20.318 L344.497,4.74 L352.689,20.318 Z M357.873,30.197 L362.055,30.197 L347.192,2.099 L341.709,2.099 L326.844,30.197 L331.025,30.197 L334.373,23.696 L354.526,23.696 L357.873,30.197 Z M363.643,31.154 L357.29,31.154 L353.942,24.653 L334.956,24.653 L331.609,31.154 L325.255,31.154 L341.134,1.142 L347.768,1.142 L347.904,1.397 L363.643,31.154 L363.643,31.154 Z" id="Fill-38" fill="#8770A5"></path>
                <path d="M98.914,71.654 C98.914,71.654 97.049,67.564 96.895,66.029 C96.742,64.493 97.202,62.496 96.69,59.27 C96.178,56.045 95.615,53.843 90.29,51.283 C84.966,48.723 86.297,51.283 76.16,46.727 C76.16,46.727 77.183,51.539 77.132,55.533 C77.081,59.526 79.488,67.718 85.785,69.152 C92.082,70.585 97.066,73.062 97.066,73.062 C97.066,73.062 92.287,73.196 90.751,72.837 C89.215,72.479 85.068,69.766 81.023,70.278 C76.979,70.79 74.623,73.657 74.623,73.657 L74.623,87.737 L79.027,88.504 C79.027,88.504 84.146,89.068 87.013,86.968 C89.881,84.87 91.417,81.644 91.417,81.644 C91.417,81.644 95.386,76.461 97.947,74.822 C96.973,77.228 96.281,79.494 92.492,84 C88.703,88.504 90.495,93.676 92.287,96.901 L106.059,96.901 C106.059,96.901 107.555,94.36 107.811,90.828 C108.067,87.294 106.771,85.796 105.644,84.26 C104.518,82.725 100.909,77.14 100.499,74.734 C100.499,74.734 104.074,78.553 105.712,81.011 C107.35,83.468 108.671,86.712 113.279,87.685 C117.887,88.659 126.386,85.126 126.386,85.126 L132.142,83.532 L129.611,81.593 C129.611,81.593 125.874,77.753 124.645,75.859 C123.416,73.964 119.627,69.561 115.839,69.561 C112.05,69.561 111.026,70.381 107.033,72.326 C104.677,72.94 102.425,72.889 102.425,72.889 L102.271,72.428 C102.271,72.428 104.677,69.817 106.827,69.408 C108.978,68.998 115.173,68.383 117.016,62.24 C118.859,56.096 116.504,53.536 117.989,44.628 C113.637,47.034 110.309,47.904 106.316,49.901 C102.322,51.897 98.021,54.458 99.404,64.902 C99.404,68.077 98.914,71.654 98.914,71.654" id="Fill-39" fill="#FFFFFE"></path>
                <path d="M102.537,73.253 C102.537,74.965 101.15,76.352 99.439,76.352 C97.728,76.352 96.341,74.965 96.341,73.253 C96.341,71.543 97.728,70.156 99.439,70.156 C101.15,70.156 102.537,71.543 102.537,73.253" id="Fill-40" fill="#8770A5"></path>
                <path d="M81.565,52.849 C85.563,55.5 88.307,58.513 89.742,61.198 C91.136,63.8 93.489,68.811 94.11,68.546 C94.668,68.312 93.183,63.76 90.924,59.963 C88.85,56.481 84.299,53.181 81.565,52.849" id="Fill-41" fill="#8770A5"></path>
                <path d="M76.589,82.498 C79.767,80.001 82.857,78.632 85.316,78.238 C87.7,77.853 92.193,77.381 92.1720734,76.796 C92.157,76.274 88.265,76.169 84.72,76.916 C81.47,77.601 77.637,80.363 76.589,82.498" id="Fill-42" fill="#8770A5"></path>
                <path d="M124.698,81.494 C120.466,81.637 116.943,80.877 114.526,79.683 C112.182,78.526 107.906,76.131 107.598,76.639 C107.32,77.093 110.739,79.605 114.321,81.177 C117.606,82.618 122.571,82.657 124.698,81.494" id="Fill-43" fill="#8770A5"></path>
                <path d="M112.631,51.782 C111.572,56.035 109.846,59.245 108.016,61.193 C106.243,63.084 102.733,66.425 103.136,66.922 C103.492,67.369 106.87,64.921 109.392,61.959 C111.704,59.241 113.145,54.33 112.631,51.782" id="Fill-44" fill="#8770A5"></path>
                <path d="M246.131,71.204 C251.026,64.541 261.539,58.628 267.763,58.386 C258.544,63.084 252.151,68.703 248.748,73.866 C245.444,78.871 239.832,88.557 238.434,87.928 C237.181,87.373 240.798,78.471 246.131,71.204 Z M230.263,81.398 C229.703,95.708 233.452,96.116 233.452,96.116 C240.704,99.246 251.559,95.094 251.559,95.094 C267.608,89.15 269.37,73.097 269.37,73.097 C270.287,63.828 271.313,61.062 271.313,61.062 C272.341,57.033 275.597,54.205 275.597,54.205 C261.651,49.523 244.713,59.645 244.713,59.645 C230.142,68.65 230.263,81.398 230.263,81.398 L230.263,81.398 Z" id="Fill-45" fill="#FFFFFE"></path>
                <path d="M181.895,79.225 C181.622,79.845 181.724,80.478 182.246,80.964 L193.163,90.357 C193.983,91.131 195.519,91.964 197.073,89.866 C197.787,88.903 198.3,87.787 198.797,86.655 C199.295,85.522 199.77,84.389 199.997,83.212 C200.492,80.647 198.839,80.08 197.714,80 L183.411,78.312 C182.7,78.256 182.165,78.61 181.893,79.229 L181.895,79.225" id="Fill-46" fill="#FFFFFE"></path>
                <path d="M182.297,79.407 C182.155,79.732 182.084,80.21 182.547,80.641 L193.451,90.023 C193.844,90.392 194.425,90.805 195.089,90.746 C195.645,90.696 196.194,90.312 196.719,89.604 C197.401,88.681 197.9,87.599 198.392,86.477 C198.887,85.354 199.346,84.254 199.564,83.129 C199.73,82.262 199.642,81.598 199.303,81.155 C198.901,80.631 198.2,80.476 197.682,80.439 L183.36,78.75 C182.742,78.698 182.44,79.08 182.297,79.407 Z M194.96,91.633 C194.068,91.633 193.333,91.124 192.86,90.678 L181.958,81.298 C181.305,80.691 181.136,79.854 181.491,79.047 C181.846,78.243 182.579,77.807 183.447,77.872 L197.765,79.561 C198.443,79.609 199.401,79.834 200.003,80.618 C200.504,81.27 200.647,82.171 200.43,83.296 C200.196,84.51 199.716,85.662 199.201,86.833 C198.687,88.001 198.165,89.133 197.428,90.13 C196.747,91.048 195.986,91.552 195.167,91.625 C195.097,91.631 195.028,91.633 194.96,91.633 L194.96,91.633 Z" id="Fill-47" fill="#F9D35A"></path>
                <path d="M182.095,76.494 C182.302,77.139 182.797,77.546 183.51,77.565 L197.91,77.371 C199.038,77.407 200.74,77.013 200.514,74.411 C200.411,73.217 200.056,72.042 199.679,70.864 C199.302,69.687 198.907,68.523 198.298,67.491 C196.97,65.242 195.355,65.913 194.459,66.595 L182.626,74.805 C182.057,75.235 181.89,75.854 182.096,76.499 L182.095,76.494" id="Fill-48" fill="#FFFFFE"></path>
                <path d="M182.515,76.36 C182.624,76.699 182.887,77.108 183.522,77.124 L197.904,76.929 C198.443,76.95 199.157,76.865 199.61,76.385 C199.995,75.979 200.151,75.328 200.075,74.449 C199.976,73.308 199.633,72.166 199.259,70.998 C198.885,69.831 198.5,68.701 197.918,67.715 C197.47,66.957 196.964,66.517 196.415,66.41 C195.768,66.284 195.138,66.632 194.726,66.946 L182.878,75.169 C182.388,75.538 182.408,76.02 182.515,76.36 Z M183.516,78.006 C182.627,77.984 181.947,77.47 181.676,76.632 C181.408,75.793 181.664,74.978 182.361,74.454 L194.207,66.233 C194.748,65.82 195.61,65.354 196.584,65.543 C197.391,65.702 198.096,66.281 198.678,67.266 C199.306,68.331 199.709,69.511 200.099,70.728 C200.489,71.946 200.847,73.141 200.955,74.373 C201.054,75.513 200.816,76.395 200.251,76.992 C199.572,77.71 198.596,77.838 197.896,77.811 L183.516,78.006 L183.516,78.006 Z" id="Fill-49" fill="#F9D35A"></path>
                <path d="M180.623,73.613 C181.189,73.983 181.829,73.988 182.395,73.552 L193.458,64.331 C194.356,63.648 195.431,62.271 193.617,60.392 C192.784,59.53 191.767,58.84 190.732,58.164 C189.698,57.487 188.659,56.831 187.536,56.414 C185.088,55.503 184.256,57.041 183.99,58.136 L179.971,71.966 C179.799,72.659 180.059,73.244 180.626,73.614 L180.623,73.613" id="Fill-50" fill="#FFFFFE"></path>
                <path d="M180.867,73.246 C181.166,73.441 181.625,73.587 182.126,73.203 L193.176,63.992 C193.604,63.666 194.107,63.153 194.158,62.495 C194.201,61.937 193.912,61.333 193.3,60.698 C192.504,59.875 191.517,59.204 190.491,58.533 C189.466,57.862 188.456,57.227 187.383,56.827 C186.554,56.519 185.886,56.497 185.392,56.76 C184.809,57.07 184.541,57.736 184.419,58.24 L180.395,72.089 C180.246,72.689 180.569,73.05 180.867,73.245 L180.867,73.246 Z M181.472,74.323 C181.101,74.323 180.728,74.209 180.381,73.982 L180.382,73.981 C179.646,73.499 179.332,72.706 179.543,71.86 L183.567,58.013 C183.726,57.352 184.105,56.445 184.977,55.981 C185.704,55.594 186.617,55.601 187.69,56 C188.849,56.431 189.905,57.095 190.974,57.795 C192.044,58.494 193.075,59.196 193.934,60.086 C194.729,60.909 195.1,61.742 195.038,62.562 C194.963,63.547 194.282,64.258 193.725,64.682 L182.678,73.891 C182.304,74.179 181.889,74.323 181.472,74.323 L181.472,74.323 Z" id="Fill-51" fill="#F9D35A"></path>
                <path d="M177.476,72.988 C178.149,72.917 178.648,72.514 178.81,71.819 L181.541,57.679 C181.805,56.583 181.766,54.836 179.172,54.529 C177.982,54.387 176.759,54.498 175.53,54.628 C174.3,54.758 173.08,54.908 171.946,55.295 C169.475,56.14 169.803,57.857 170.291,58.874 L175.93,72.126 C176.234,72.77 176.807,73.059 177.48,72.987 L177.476,72.988" id="Fill-52" fill="#FFFFFE"></path>
                <path d="M177.981,54.905 C177.198,54.905 176.394,54.98 175.576,55.067 C174.354,55.197 173.168,55.344 172.089,55.714 C171.255,55.999 170.721,56.405 170.505,56.921 C170.25,57.529 170.464,58.214 170.688,58.682 L176.336,71.953 C176.6,72.511 177.08,72.587 177.433,72.548 L177.433,72.549 C177.787,72.51 178.237,72.335 178.381,71.719 L181.108,57.595 C181.233,57.071 181.299,56.356 180.921,55.815 C180.601,55.356 179.996,55.07 179.12,54.967 C178.746,54.922 178.366,54.905 177.981,54.905 Z M177.285,73.439 C176.514,73.439 175.869,73.031 175.531,72.315 L169.885,59.047 C169.59,58.433 169.309,57.49 169.692,56.579 C170.01,55.821 170.721,55.249 171.804,54.879 C172.969,54.48 174.209,54.325 175.483,54.189 C176.755,54.054 177.998,53.947 179.223,54.09 C180.361,54.225 181.176,54.635 181.645,55.31 C182.21,56.121 182.134,57.102 181.97,57.782 L179.244,71.903 C179.042,72.77 178.4,73.334 177.523,73.427 L177.523,73.426 C177.443,73.435 177.363,73.439 177.285,73.439 L177.285,73.439 Z" id="Fill-53" fill="#F9D35A"></path>
                <path d="M174.785,74.143 C175.266,73.666 175.403,73.039 175.093,72.396 L168.36,59.666 C167.878,58.645 166.753,57.308 164.539,58.696 C163.523,59.332 162.638,60.184 161.761,61.055 C160.885,61.928 160.03,62.809 159.388,63.822 C157.992,66.029 159.323,67.161 160.341,67.647 L173.041,74.44 C173.682,74.751 174.309,74.618 174.788,74.139 L174.785,74.143" id="Fill-54" fill="#FFFFFE"></path>
                <path d="M166.284,58.542 C165.84,58.542 165.333,58.718 164.773,59.07 C163.806,59.674 162.944,60.503 162.073,61.369 C161.204,62.233 160.375,63.088 159.762,64.058 C159.29,64.803 159.129,65.454 159.284,65.991 C159.467,66.626 160.063,67.025 160.532,67.249 L173.249,74.05 C173.805,74.321 174.225,74.079 174.476,73.827 C174.729,73.576 174.97,73.157 174.696,72.587 L167.97,59.872 C167.739,59.384 167.342,58.786 166.708,58.6 C166.574,58.561 166.433,58.542 166.284,58.542 Z M173.728,75.046 C173.436,75.046 173.138,74.977 172.848,74.837 L160.133,68.036 C159.519,67.744 158.709,67.184 158.436,66.235 C158.208,65.445 158.404,64.553 159.016,63.587 C159.678,62.54 160.545,61.644 161.45,60.743 C162.359,59.839 163.261,58.975 164.305,58.322 C165.274,57.714 166.165,57.522 166.956,57.754 C167.904,58.031 168.46,58.844 168.759,59.476 L175.483,72.189 C175.87,72.992 175.722,73.835 175.096,74.456 C174.703,74.846 174.224,75.046 173.728,75.046 L173.728,75.046 Z" id="Fill-55" fill="#F9D35A"></path>
                <path d="M173.17,75.916 L160.103,69.915 C159.65,69.681 159.022,69.461 158.454,69.66 C158.442,69.665 158.429,69.669 158.416,69.674 C157.926,69.864 157.527,70.362 157.23,71.157 C156.833,72.218 156.654,73.391 156.491,74.599 C156.328,75.808 156.19,76.987 156.291,78.115 C156.367,78.96 156.62,79.547 157.042,79.86 C157.54,80.228 158.222,80.183 158.707,80.082 L172.944,77.747 C173.368,77.658 173.628,77.378 173.691,76.918 C173.751,76.459 173.576,76.122 173.17,75.916" id="Fill-56" fill="#FFFFFE"></path>
                <path d="M173.711,75.024 C173.711,75.024 173.71,75.025 173.71,75.026 C173.71,75.027 173.71,75.028 173.71,75.028 L173.711,75.024" id="Fill-57" fill="#F9D35A"></path>
                <path d="M174.476,79.798 C174.24,79.396 173.893,79.238 173.445,79.327 L159.462,82.677 C159.273,82.713 159.067,82.766 158.865,82.846 C158.519,82.982 158.187,83.195 157.987,83.531 C157.718,83.983 157.713,84.623 157.97,85.431 C158.314,86.511 159.47,88.976 160.088,90.027 C160.706,91.079 161.354,91.935 162.253,92.306 C163.037,92.631 163.471,92.33 163.849,91.964 C164.988,90.863 165.072,90.631 165.144,90.651 L174.398,80.907 C174.678,80.576 174.709,80.198 174.476,79.797 L174.476,79.798" id="Fill-58" fill="#FFFFFE"></path>
                <path d="M174.062,77.775 C174.062,77.777 174.063,77.778 174.063,77.779 L174.064,77.78 L174.062,77.775" id="Fill-59" fill="#F9D35A"></path>
                <path d="M177.11,80.94 C176.835,80.849 176.589,80.857 176.376,80.964 C176.248,81.029 176.131,81.129 176.027,81.265 L167.711,92.998 C167.391,93.409 167.052,94.002 167.164,94.611 C167.26,95.127 167.676,95.613 168.402,96.051 C169.373,96.638 170.492,97.03 171.65,97.414 C172.805,97.797 173.936,98.15 175.067,98.26 C175.91,98.341 176.534,98.202 176.92,97.844 C177.373,97.423 177.456,96.745 177.446,96.249 L177.784,81.827 C177.777,81.392 177.55,81.086 177.11,80.94" id="Fill-60" fill="#FFFFFE"></path>
                <path d="M175.963,79.794 L175.963,79.795 C175.964,79.795 175.965,79.796 175.966,79.796 L175.963,79.794" id="Fill-61" fill="#F9D35A"></path>
                <path d="M180.052,80.8 C179.989,80.828 179.93,80.858 179.877,80.892 C179.572,81.084 179.431,81.376 179.458,81.761 L181.013,96.057 C181.047,96.577 181.186,97.248 181.674,97.627 C182.088,97.952 182.721,98.038 183.555,97.884 C184.666,97.682 185.765,97.234 186.888,96.753 C188.012,96.272 189.096,95.784 190.008,95.12 C190.694,94.622 191.068,94.103 191.12,93.581 C191.18,92.965 190.792,92.401 190.455,92.038 L181.146,81.015 C180.852,80.695 180.479,80.617 180.052,80.8" id="Fill-62" fill="#FFFFFE"></path>
                <path d="M178.687,80.311 L178.688,80.311 C178.689,80.311 178.69,80.31 178.692,80.31 L178.687,80.311" id="Fill-63" fill="#F9D35A"></path>
                <path d="M168.317,52.374 C175.111,50.007 182.42,50.428 188.897,53.558 C195.376,56.689 200.246,62.155 202.613,68.949 C205.316,76.709 203.483,86.201 199.092,93.123 L202.19,95.778 C207.334,87.768 209.67,76.593 206.531,67.584 C204.348,61.317 200.319,56.03 194.972,52.315 C193.63,51.381 192.203,50.547 190.703,49.823 C183.227,46.209 174.792,45.724 166.952,48.456 C161.052,50.511 155.863,54.085 152.262,59.506 L155.704,61.549 C158.91,57.3 163.25,54.139 168.317,52.374" id="Fill-64" fill="#FFFFFE"></path>
                <path d="M100.221,96.335 C98.964,92.894 98.641,89.798 98.974,87.497 C99.296,85.265 100.117,81.118 99.616,81 C99.167,80.891 98.019,84.364 97.688,87.722 C97.387,90.803 98.691,94.893 100.221,96.335" id="Fill-65" fill="#8770A5"></path>
                <path d="M344.971,92.657 C338.178,95.023 330.869,94.602 324.391,91.472 C317.913,88.341 313.043,82.876 310.676,76.082 C307.972,68.322 309.805,58.83 314.196,51.907 L311.098,49.252 C305.955,57.262 303.618,68.437 306.758,77.447 C308.94,83.713 312.97,89.001 318.316,92.715 C319.659,93.649 321.086,94.483 322.585,95.208 C330.061,98.821 338.496,99.306 346.337,96.574 C352.236,94.519 357.426,90.946 361.027,85.525 L357.585,83.481 C354.378,87.729 350.038,90.891 344.971,92.657" id="Fill-66" fill="#FFFFFE"></path>
                <g id="Group-70" transform="translate(0.000000, 39.000000)">
                    <mask id="mask-6" fill="white">
                        <use xlink:href="#path-5"></use>
                    </mask>
                    <g id="Clip-68"></g>
                    <path d="M333.557,18.973 C326.199,18.973 320.213,24.96 320.213,32.318 C320.213,39.676 326.199,45.663 333.557,45.663 C340.916,45.663 346.902,39.676 346.902,32.318 C346.902,24.96 340.916,18.973 333.557,18.973 Z M333.557,47.099 C325.407,47.099 318.775,40.468 318.775,32.318 C318.775,24.168 325.407,17.536 333.557,17.536 C341.708,17.536 348.339,24.168 348.339,32.318 C348.339,40.468 341.708,47.099 333.557,47.099 L333.557,47.099 Z" id="Fill-67" fill="#FFFFFE" mask="url(#mask-6)"></path>
                    <path d="M57.528,0.463 L20.212,0.463 C20.961,2.051 22.146,4.536 24.027,8.431 C28.905,18.536 30.321,30.396 35.896,34.751 C41.471,39.107 48.788,45.727 56.976,47.295 C56.976,47.295 58.37,50.256 45.129,44.334 C31.889,38.41 28.753,31.79 28.753,31.79 C28.753,31.79 31.54,47.644 34.85,52.696 C38.16,57.749 42.342,61.929 42.342,61.929 C42.342,61.929 39.032,61.929 34.502,56.006 C29.973,50.083 26.662,41.372 25.617,33.009 C24.572,24.647 17.255,12.104 17.255,12.104 C17.255,12.104 16.384,19.247 16.384,23.776 C16.384,28.305 17.255,35.971 19.868,41.023 C22.481,46.076 25.443,49.038 25.443,49.038 C25.443,49.038 21.61,48.167 19.519,44.682 C17.429,41.198 14.119,33.184 14.119,33.184 C14.119,33.184 13.248,39.629 7.499,44.334 C7.499,44.334 12.377,36.842 12.899,31.442 C13.422,26.041 15.861,13.497 10.112,5.658 C8.389,3.308 6.859,1.658 5.554,0.484 C2.449,0.693 0.017,2.548 0.017,4.807 L0.017,60.953 C0.017,63.352 2.761,65.296 6.141,65.296 L57.528,65.296 C60.908,65.296 63.651,63.352 63.651,60.953 L63.651,4.807 C63.651,2.408 60.908,0.463 57.528,0.463" id="Fill-69" fill="#A0A193" mask="url(#mask-6)"></path>
                </g>
                <path d="M10.112,44.658 C15.861,52.497 13.422,65.041 12.899,70.442 C12.377,75.842 7.499,83.334 7.499,83.334 C13.248,78.629 14.119,72.184 14.119,72.184 C14.119,72.184 17.429,80.198 19.519,83.682 C21.61,87.167 25.443,88.038 25.443,88.038 C25.443,88.038 22.481,85.076 19.868,80.023 C17.255,74.971 16.384,67.305 16.384,62.776 C16.384,58.247 17.255,51.104 17.255,51.104 C17.255,51.104 24.572,63.647 25.617,72.009 C26.662,80.372 29.973,89.083 34.502,95.006 C39.032,100.929 42.342,100.929 42.342,100.929 C42.342,100.929 38.16,96.749 34.85,91.696 C31.54,86.644 28.753,70.79 28.753,70.79 C28.753,70.79 31.889,77.41 45.129,83.334 C58.37,89.256 56.976,86.295 56.976,86.295 C48.788,84.727 41.471,78.107 35.896,73.751 C30.321,69.396 28.905,57.536 24.027,47.431 C22.146,43.536 20.961,41.051 20.212,39.463 L6.141,39.463 C5.943,39.463 5.747,39.471 5.554,39.484 C6.859,40.658 8.389,42.308 10.112,44.658" id="Fill-71" fill="#FFFFFE"></path>
            </g>
        </g>
    </g>
</svg>